<svg xmlns="http://www.w3.org/2000/svg" width="1200" height="1200" viewBox="0 0 1200 1200" version="1.1"><path d="M 0 600.001 L 0 1200.002 600.250 1199.751 L 1200.500 1199.500 1200.751 599.750 L 1201.002 0 600.501 0 L 0 0 0 600.001 M 0.497 600.500 C 0.497 930.500, 0.611 1065.649, 0.750 900.832 C 0.889 736.015, 0.889 466.015, 0.750 300.832 C 0.611 135.649, 0.497 270.500, 0.497 600.500 M 569.118 481.358 L 567.913 482.809 568.207 522.655 L 568.500 562.500 570.386 565.614 C 571.423 567.327, 573.517 569.465, 575.040 570.364 C 576.563 571.264, 579.855 572, 582.357 572 C 584.859 572, 588.052 571.478, 589.453 570.839 C 591.286 570.004, 592 568.906, 592 566.921 C 592 565.405, 591.727 563.452, 591.393 562.582 C 590.967 561.472, 589.476 561, 586.393 561 C 583.977 561, 581.911 560.888, 581.801 560.750 C 581.692 560.612, 581.354 542.500, 581.051 520.500 L 580.500 480.500 575.411 480.203 C 571.889 479.998, 569.951 480.354, 569.118 481.358 M 428.416 487.358 C 428.129 488.105, 431.580 496.992, 436.084 507.108 C 440.588 517.224, 444.287 525.953, 444.303 526.506 C 444.320 527.060, 440.166 536.637, 435.072 547.788 C 429.978 558.940, 426.073 568.747, 426.393 569.582 L 426.976 571.101 432.641 570.800 L 438.306 570.500 445.384 554.250 C 449.278 545.313, 452.699 538, 452.988 538 C 453.276 538, 456.660 545.313, 460.506 554.250 L 467.500 570.500 473.262 570.800 L 479.024 571.101 479.634 569.512 C 479.987 568.593, 476.367 559.291, 471.038 547.422 L 461.832 526.921 462.816 524.210 C 463.358 522.720, 467.247 514.132, 471.460 505.126 C 475.672 496.120, 478.872 488.110, 478.571 487.326 L 478.024 485.899 472.339 486.200 L 466.654 486.500 460.326 500.918 C 456.845 508.848, 453.848 515.486, 453.664 515.669 C 453.480 515.853, 450.708 509.815, 447.503 502.252 C 444.298 494.688, 441.243 487.938, 440.715 487.250 C 440.156 486.522, 437.495 486, 434.346 486 C 430.712 486, 428.766 486.446, 428.416 487.358 M 517.500 508.842 C 515.850 509.850, 513.862 511.448, 513.083 512.392 L 511.665 514.109 510.381 511.054 L 509.097 508 505.298 508.015 C 503.209 508.024, 500.882 508.422, 500.126 508.901 L 498.752 509.771 498.935 551.604 C 499.060 580.364, 499.462 593.851, 500.220 594.765 C 500.941 595.634, 503.084 595.991, 506.411 595.797 L 511.500 595.500 511.778 581.233 L 512.055 566.965 515.760 569.483 L 519.464 572 524.500 572 L 529.536 572 533.166 569.533 C 535.162 568.177, 537.699 565.589, 538.802 563.783 C 539.906 561.978, 541.527 558.056, 542.405 555.068 C 543.405 551.662, 543.996 545.883, 543.988 539.568 C 543.982 534.031, 543.335 527.090, 542.551 524.144 C 541.766 521.197, 539.954 517.017, 538.522 514.854 C 537.091 512.692, 534.475 510.041, 532.710 508.965 C 530.779 507.787, 527.707 507.007, 525 507.007 C 522.393 507.007, 519.238 507.779, 517.500 508.842 M 622.312 508.945 C 619.859 510.059, 616.843 512.614, 615.036 515.110 C 613.337 517.454, 611.232 521.832, 610.358 524.839 C 609.421 528.064, 608.771 534.036, 608.774 539.403 C 608.776 544.406, 609.325 550.522, 609.994 552.994 C 610.662 555.466, 612.042 559.122, 613.060 561.119 C 614.079 563.115, 616.271 565.891, 617.931 567.288 C 619.591 568.685, 622.580 570.366, 624.574 571.024 C 626.567 571.682, 631.026 572.040, 634.482 571.820 L 640.767 571.420 644.801 568.750 C 647.664 566.856, 649.746 564.231, 651.971 559.710 L 655.108 553.338 655.693 544.306 C 656.053 538.749, 655.798 532.730, 655.030 528.661 C 654.311 524.851, 652.451 519.840, 650.641 516.838 C 648.465 513.229, 646.146 510.918, 643.093 509.315 L 638.685 507 632.593 507.022 C 628.782 507.036, 624.931 507.756, 622.312 508.945 M 698.500 508.834 C 696.850 509.868, 694.613 511.711, 693.529 512.929 L 691.559 515.145 690.446 511.822 L 689.334 508.500 685.684 508.191 C 683.677 508.021, 681.276 508.306, 680.350 508.824 L 678.666 509.767 678.910 539.124 C 679.070 558.393, 679.527 568.930, 680.238 569.787 C 680.939 570.631, 683.123 570.988, 686.411 570.797 L 691.500 570.500 692 547.160 L 692.500 523.820 694.861 521.910 C 696.159 520.859, 697.959 519.954, 698.861 519.899 C 699.762 519.843, 701.930 519.875, 703.677 519.969 C 705.995 520.094, 707.160 519.570, 707.983 518.032 C 708.603 516.872, 708.974 514.028, 708.806 511.712 L 708.500 507.500 705 507.228 C 702.891 507.063, 700.308 507.702, 698.500 508.834 M 739.030 508.113 C 737.671 508.655, 735.029 510.266, 733.159 511.692 C 731.287 513.120, 728.677 516.648, 727.353 519.541 C 726.030 522.430, 724.592 527.746, 724.158 531.353 C 723.723 534.960, 723.491 539.619, 723.640 541.706 C 723.790 543.793, 724.178 547.750, 724.502 550.500 C 724.827 553.250, 726.309 557.733, 727.796 560.463 C 729.328 563.273, 732.316 566.697, 734.689 568.359 L 738.877 571.292 746.309 571.769 C 751.632 572.111, 755.157 571.776, 758.727 570.591 C 761.469 569.680, 764.721 567.861, 765.954 566.549 L 768.195 564.164 767.503 561.014 C 767.123 559.282, 766.263 557.654, 765.593 557.397 C 764.923 557.140, 762.378 557.836, 759.937 558.943 C 757.215 560.178, 753.334 560.965, 749.896 560.978 L 744.292 561 741.727 558.623 C 740.316 557.315, 738.678 554.503, 738.086 552.373 C 737.495 550.243, 737.009 547.487, 737.006 546.250 L 737 544 751.750 543.985 C 759.862 543.976, 767.175 543.541, 768 543.017 L 769.500 542.065 769.283 534.900 C 769.163 530.960, 768.363 525.322, 767.506 522.372 C 766.648 519.422, 764.503 515.365, 762.739 513.355 C 760.975 511.346, 758.076 509.094, 756.298 508.351 C 754.519 507.608, 750.462 507.029, 747.282 507.063 C 744.102 507.098, 740.388 507.570, 739.030 508.113 M 514.960 521.043 L 512 524.212 512 540.533 L 512 556.855 514.635 558.927 C 516.248 560.197, 518.740 561, 521.062 561 L 524.855 561 526.853 558.459 C 527.952 557.062, 529.335 553.665, 529.926 550.910 C 530.517 548.155, 530.989 542.661, 530.976 538.701 C 530.963 534.740, 530.543 529.735, 530.043 527.577 C 529.542 525.420, 528.271 522.495, 527.217 521.077 C 525.880 519.279, 524.186 518.405, 521.610 518.187 L 517.920 517.874 514.960 521.043 M 626.235 520.250 C 625.073 521.487, 623.656 524.525, 623.085 527 C 622.515 529.475, 622.049 535.100, 622.049 539.500 C 622.049 543.900, 622.515 549.525, 623.085 552 C 623.656 554.475, 625.073 557.513, 626.235 558.750 C 627.621 560.226, 629.516 561, 631.740 561 C 633.605 561, 635.948 560.563, 636.945 560.029 C 637.943 559.495, 639.545 557.133, 640.505 554.779 L 642.251 550.500 642.236 539.500 L 642.221 528.500 640.490 524.221 C 639.538 521.867, 637.943 519.505, 636.945 518.971 C 635.948 518.437, 633.605 518, 631.740 518 C 629.516 518, 627.621 518.774, 626.235 520.250 M 741.150 520.340 C 739.941 521.627, 738.513 524.211, 737.976 526.083 C 737.439 527.955, 737 530.727, 737 532.243 L 737 535 747 535 L 757 535 756.994 532.250 C 756.991 530.737, 756.512 527.783, 755.929 525.685 C 755.347 523.587, 753.999 520.999, 752.935 519.935 C 751.696 518.696, 749.624 518, 747.174 518 C 744.456 518, 742.712 518.678, 741.150 520.340 M 464.511 649.398 L 462 651.909 462 657.455 L 462 663 460 663 L 458 663 458 666 L 458 669 459.975 669 L 461.949 669 462.225 684.750 L 462.500 700.500 466 700.500 L 469.500 700.500 469.775 684.814 L 470.050 669.128 472.775 668.814 L 475.500 668.500 475.500 666 L 475.500 663.500 472.698 663.179 L 469.896 662.857 470.198 658.179 L 470.500 653.500 473 653.481 L 475.500 653.462 475.500 650.481 L 475.500 647.500 471.261 647.193 L 467.023 646.886 464.511 649.398 M 806.451 648.267 C 806.184 648.964, 806.085 661.002, 806.232 675.017 L 806.500 700.500 810.250 700.810 L 814 701.121 814 687.060 L 814 673 816 671 C 817.100 669.900, 819.098 669, 820.441 669 C 821.784 669, 823.246 669.563, 823.691 670.250 C 824.136 670.938, 824.725 678.025, 825 686 L 825.500 700.500 829 700.500 L 832.500 700.500 832.776 685.251 L 833.052 670.001 831.520 667.039 C 830.475 665.018, 828.741 663.703, 826.064 662.901 L 822.140 661.725 818.070 663.847 L 814 665.968 814 656.484 L 814 647 810.469 647 C 808.526 647, 806.718 647.570, 806.451 648.267 M 259.450 652.271 C 259.181 652.970, 259.083 664.107, 259.231 677.021 L 259.500 700.500 270.130 700.783 L 280.761 701.065 281.349 699.533 C 281.673 698.690, 281.678 697.325, 281.362 696.500 L 280.786 695 273.893 695 L 267 695 267 673 L 267 651 263.469 651 C 261.526 651, 259.718 651.572, 259.450 652.271 M 641.134 657.698 C 640.044 661.439, 637.093 672.176, 634.576 681.558 C 632.059 690.940, 630 699.180, 630 699.869 C 630 700.704, 631.248 701.017, 633.750 700.810 L 637.500 700.500 638.833 696 C 639.566 693.525, 640.340 690.938, 640.552 690.250 C 640.811 689.410, 643.175 689, 647.763 689 L 654.589 689 656.045 694.750 L 657.500 700.500 661.250 700.810 L 665 701.121 664.983 699.310 C 664.974 698.315, 662.159 687.150, 658.728 674.500 L 652.489 651.500 647.802 651.198 L 643.116 650.895 641.134 657.698 M 644.905 672.075 L 642.310 683 647.674 683 L 653.038 683 652.471 680.750 C 652.159 679.513, 650.913 674.596, 649.702 669.825 L 647.500 661.151 644.905 672.075 M 300 663.752 C 297.722 664.889, 295.714 667.058, 294.250 669.962 L 292 674.424 292.022 681.962 C 292.037 687.186, 292.625 690.781, 293.938 693.672 C 294.980 695.967, 297.076 698.659, 298.597 699.655 C 300.440 700.863, 303.241 701.467, 307 701.467 C 310.694 701.467, 313.563 700.861, 315.319 699.710 C 317.086 698.553, 318 697.070, 318 695.360 L 318 692.767 315.250 693.444 C 313.738 693.816, 311.268 694.369, 309.763 694.672 C 308.257 694.975, 305.972 694.959, 304.684 694.636 C 303.396 694.312, 301.816 692.891, 301.171 691.477 C 300.527 690.063, 300 688.044, 300 686.990 L 300 685.075 309.250 684.788 L 318.500 684.500 318.802 679.261 C 319.010 675.648, 318.480 672.613, 317.093 669.478 L 315.083 664.932 311.573 663.466 C 309.643 662.660, 307.037 662.001, 305.782 662.002 C 304.527 662.002, 301.925 662.790, 300 663.752 M 339.608 663.329 C 337.467 663.975, 335.258 665.229, 334.699 666.116 C 334.139 667.003, 333.984 668.515, 334.353 669.478 C 334.840 670.747, 335.638 671.041, 337.262 670.550 C 338.493 670.177, 341.409 669.618, 343.742 669.307 C 346.444 668.947, 348.531 669.196, 349.492 669.993 C 350.321 670.682, 351 672.481, 351 673.992 L 351 676.740 346.686 677.226 C 344.314 677.494, 341.092 678.340, 339.526 679.106 C 337.961 679.873, 335.757 681.747, 334.629 683.271 C 333.188 685.219, 332.622 687.397, 332.727 690.602 C 332.809 693.109, 333.577 696.231, 334.434 697.539 C 335.291 698.847, 337.762 700.448, 339.926 701.096 L 343.860 702.275 347.961 700.137 L 352.063 697.999 352.638 699.500 C 352.955 700.325, 354.178 700.993, 355.357 700.985 C 356.536 700.976, 357.983 700.639, 358.573 700.235 C 359.302 699.736, 359.462 694.484, 359.073 683.851 L 358.500 668.203 356.600 666.107 C 355.555 664.954, 353.080 663.561, 351.100 663.011 C 349.120 662.461, 346.600 662.043, 345.500 662.082 C 344.400 662.122, 341.749 662.682, 339.608 663.329 M 385.750 663.744 C 384.238 664.690, 383 665.809, 383 666.232 C 383 666.654, 382.602 667, 382.117 667 C 381.631 667, 380.989 666.067, 380.691 664.926 L 380.149 662.853 377.324 663.176 L 374.500 663.500 374.500 682 L 374.500 700.500 378 700.500 L 381.500 700.500 381.778 686.755 L 382.056 673.009 384.376 671.489 C 385.652 670.654, 387.776 670.089, 389.098 670.235 L 391.500 670.500 391.500 666.514 C 391.500 663.748, 391.041 662.451, 390 662.277 C 389.175 662.139, 387.262 662.799, 385.750 663.744 M 414.523 663.565 C 412.885 664.419, 411.198 665.653, 410.773 666.309 C 410.254 667.108, 409.792 666.742, 409.369 665.196 L 408.739 662.893 405.619 663.196 L 402.500 663.500 402.500 682 L 402.500 700.500 406.250 700.810 L 410 701.121 410 687.060 L 410 673 412 671 C 413.100 669.900, 415.098 669, 416.441 669 C 417.784 669, 419.246 669.563, 419.691 670.250 C 420.136 670.938, 420.725 678.025, 421 686 L 421.500 700.500 425 700.500 L 428.500 700.500 428.778 685.525 C 428.963 675.549, 428.655 669.582, 427.856 667.652 C 427.144 665.934, 425.314 664.193, 423.360 663.377 C 421.547 662.620, 419.487 662.003, 418.782 662.006 C 418.077 662.010, 416.160 662.711, 414.523 663.565 M 500.750 663.744 C 499.238 664.690, 498 665.809, 498 666.232 C 498 666.654, 497.602 667, 497.117 667 C 496.631 667, 495.989 666.067, 495.691 664.926 L 495.149 662.853 492.324 663.176 L 489.500 663.500 489.500 682 L 489.500 700.500 493 700.500 L 496.500 700.500 496.778 686.755 L 497.056 673.009 499.376 671.489 C 500.652 670.654, 502.776 670.089, 504.098 670.235 L 506.500 670.500 506.500 666.514 C 506.500 663.748, 506.041 662.451, 505 662.277 C 504.175 662.139, 502.262 662.799, 500.750 663.744 M 524 663.703 C 521.754 664.856, 519.694 667.099, 518.250 669.962 L 516 674.424 516 682 L 516 689.576 518.250 694.038 C 519.691 696.896, 521.758 699.148, 524 700.302 C 526.283 701.478, 528.817 701.944, 531.288 701.642 C 533.372 701.388, 536.222 700.429, 537.622 699.512 C 539.022 698.595, 541.020 695.967, 542.062 693.672 C 543.382 690.765, 543.956 687.225, 543.956 682 C 543.956 676.775, 543.382 673.235, 542.062 670.328 C 541.020 668.033, 539.117 665.469, 537.834 664.628 C 536.550 663.788, 533.700 662.832, 531.500 662.504 C 528.668 662.081, 526.478 662.431, 524 663.703 M 569.754 663.955 C 567.693 665.080, 565.781 666, 565.504 666 C 565.227 666, 565 665.296, 565 664.437 L 565 662.873 561.750 663.187 L 558.500 663.500 558.500 682 L 558.500 700.500 562.250 700.810 L 566 701.121 566 686.715 L 566 672.310 567.829 670.655 C 568.835 669.745, 570.579 669, 571.706 669 C 572.833 669, 574.247 669.593, 574.849 670.318 C 575.498 671.100, 576.056 677.509, 576.221 686.068 L 576.500 700.500 580 700.500 L 583.500 700.500 583.780 686.546 L 584.059 672.592 585.685 670.796 C 586.579 669.808, 588.349 669, 589.620 669 C 590.890 669, 592.395 669.870, 592.965 670.934 C 593.538 672.006, 594 679.169, 594 686.995 L 594 701.121 597.750 700.810 L 601.500 700.500 601.805 686.500 C 601.987 678.169, 601.658 670.950, 600.992 668.672 L 599.873 664.845 596.469 663.422 C 594.596 662.640, 592.438 662, 591.672 662 C 590.906 662, 588.693 663.076, 586.754 664.392 L 583.229 666.784 581.361 664.917 C 580.334 663.889, 578.145 662.792, 576.497 662.479 C 574.489 662.098, 572.264 662.585, 569.754 663.955 M 689.523 663.565 C 687.885 664.419, 686.198 665.653, 685.773 666.309 C 685.254 667.108, 684.792 666.742, 684.369 665.196 L 683.739 662.893 680.619 663.196 L 677.500 663.500 677.500 682 L 677.500 700.500 681.250 700.810 L 685 701.121 685 687.060 L 685 673 687 671 C 688.100 669.900, 690.098 669, 691.441 669 C 692.784 669, 694.246 669.563, 694.691 670.250 C 695.136 670.938, 695.725 678.025, 696 686 L 696.500 700.500 700 700.500 L 703.500 700.500 703.778 685.525 C 703.963 675.549, 703.655 669.582, 702.856 667.652 C 702.144 665.934, 700.314 664.193, 698.360 663.377 C 696.547 662.620, 694.487 662.003, 693.782 662.006 C 693.077 662.010, 691.160 662.711, 689.523 663.565 M 855 663.752 C 852.722 664.889, 850.714 667.058, 849.250 669.962 L 847 674.424 847.022 681.962 C 847.037 687.186, 847.625 690.781, 848.938 693.672 C 849.980 695.967, 852.076 698.659, 853.597 699.655 C 855.440 700.863, 858.241 701.467, 862 701.467 C 865.694 701.467, 868.563 700.861, 870.319 699.710 C 872.086 698.553, 873 697.070, 873 695.360 L 873 692.767 870.250 693.444 C 868.737 693.816, 866.268 694.369, 864.763 694.672 C 863.257 694.975, 860.972 694.959, 859.684 694.636 C 858.396 694.312, 856.816 692.891, 856.171 691.477 C 855.527 690.063, 855 688.044, 855 686.990 L 855 685.075 864.250 684.788 L 873.500 684.500 873.802 679.261 C 874.010 675.648, 873.480 672.613, 872.093 669.478 L 870.083 664.932 866.573 663.466 C 864.643 662.660, 862.037 662.001, 860.782 662.002 C 859.527 662.002, 856.925 662.790, 855 663.752 M 900.750 663.744 C 899.237 664.690, 898 665.809, 898 666.232 C 898 666.654, 897.602 667, 897.117 667 C 896.631 667, 895.989 666.067, 895.691 664.926 L 895.149 662.853 892.324 663.176 L 889.500 663.500 889.500 682 L 889.500 700.500 893 700.500 L 896.500 700.500 896.778 686.755 L 897.056 673.009 899.376 671.489 C 900.652 670.654, 902.776 670.089, 904.098 670.235 L 906.500 670.500 906.500 666.514 C 906.500 663.748, 906.041 662.451, 905 662.277 C 904.175 662.139, 902.263 662.799, 900.750 663.744 M 924 663.752 C 921.722 664.889, 919.714 667.058, 918.250 669.962 L 916 674.424 916.022 681.962 C 916.037 687.186, 916.625 690.781, 917.938 693.672 C 918.980 695.967, 921.076 698.659, 922.597 699.655 C 924.440 700.863, 927.241 701.467, 931 701.467 C 934.694 701.467, 937.563 700.861, 939.319 699.710 C 941.086 698.553, 942 697.070, 942 695.360 L 942 692.767 939.250 693.444 C 937.737 693.816, 935.268 694.369, 933.763 694.672 C 932.257 694.975, 929.972 694.959, 928.684 694.636 C 927.396 694.312, 925.816 692.891, 925.171 691.477 C 924.527 690.063, 924 688.044, 924 686.990 L 924 685.075 933.250 684.788 L 942.500 684.500 942.802 679.261 C 943.010 675.648, 942.480 672.613, 941.093 669.478 L 939.083 664.932 935.573 663.466 C 933.643 662.660, 931.037 662.001, 929.782 662.002 C 928.527 662.002, 925.925 662.790, 924 663.752 M 716.552 663.916 C 716.241 664.419, 718.387 673.100, 721.322 683.206 L 726.658 701.580 724.420 708.214 C 723.189 711.863, 722.441 715.108, 722.758 715.425 C 723.074 715.741, 724.816 716, 726.628 716 L 729.923 716 730.904 712.250 C 731.444 710.188, 734.344 699.275, 737.350 688 C 740.355 676.725, 742.969 666.600, 743.157 665.500 L 743.500 663.500 739.784 663.192 L 736.067 662.883 735.517 665.192 C 735.214 666.461, 733.919 672.675, 732.638 679 L 730.311 690.500 729.240 686.500 C 728.651 684.300, 727.194 678.112, 726.002 672.750 L 723.836 663 720.477 663 C 718.630 663, 716.863 663.412, 716.552 663.916 M 753.033 664.690 C 753.051 665.685, 754.740 674.150, 756.786 683.500 L 760.507 700.500 764.669 700.803 L 768.831 701.107 769.358 699.303 C 769.648 698.312, 770.671 692.448, 771.633 686.273 C 772.594 680.099, 773.504 675.171, 773.656 675.323 C 773.808 675.474, 774.632 680.076, 775.488 685.549 C 776.344 691.022, 777.300 696.761, 777.613 698.303 L 778.182 701.106 782.338 700.803 L 786.493 700.500 790.214 683.500 C 792.260 674.150, 793.949 665.712, 793.967 664.750 L 794 663 790.500 663 C 788.575 663, 786.968 663.112, 786.929 663.250 C 786.890 663.388, 785.849 670.250, 784.616 678.500 L 782.374 693.500 779.937 678.500 L 777.500 663.500 774.105 663.176 C 772.238 662.998, 770.388 663.372, 769.994 664.009 C 769.601 664.646, 768.457 670.970, 767.453 678.063 C 766.449 685.157, 765.373 690.707, 765.063 690.398 C 764.754 690.088, 763.600 683.910, 762.500 676.668 L 760.500 663.500 756.750 663.190 L 753 662.879 753.033 664.690 M 302.074 670.411 C 301.430 671.187, 300.641 673.437, 300.321 675.411 L 299.738 679 305.869 679 L 312 679 312 677.468 C 312 676.625, 311.348 674.375, 310.551 672.468 L 309.102 669 306.173 669 C 304.563 669, 302.718 669.635, 302.074 670.411 M 525.872 670.653 C 525.035 671.662, 524.371 675.459, 524.168 680.403 C 523.985 684.856, 524.316 689.749, 524.903 691.276 C 525.490 692.802, 526.653 694.313, 527.487 694.633 C 528.322 694.954, 530.083 694.945, 531.402 694.614 C 532.920 694.233, 534.204 692.853, 534.900 690.857 C 535.505 689.121, 536 685.054, 536 681.819 C 536 678.583, 535.348 674.375, 534.551 672.468 L 533.102 669 530.173 669 C 528.563 669, 526.627 669.744, 525.872 670.653 M 857.074 670.411 C 856.430 671.187, 855.641 673.437, 855.321 675.411 L 854.738 679 860.869 679 L 867 679 867 677.468 C 867 676.625, 866.348 674.375, 865.551 672.468 L 864.102 669 861.173 669 C 859.563 669, 857.718 669.635, 857.074 670.411 M 926.074 670.411 C 925.430 671.187, 924.641 673.437, 924.321 675.411 L 923.738 679 929.869 679 L 936 679 936 677.468 C 936 676.625, 935.348 674.375, 934.551 672.468 L 933.102 669 930.173 669 C 928.563 669, 926.718 669.635, 926.074 670.411 M 344.387 683.433 C 342.474 684.266, 341.103 685.697, 340.832 687.144 C 340.590 688.440, 340.658 690.625, 340.985 692 C 341.415 693.810, 342.351 694.590, 344.378 694.825 C 346.021 695.016, 347.966 694.436, 349.088 693.420 C 350.469 692.170, 351 690.345, 351 686.845 L 351 682 349.250 682.039 C 348.288 682.061, 346.099 682.688, 344.387 683.433" stroke="none" fill="#ffffff" fill-rule="evenodd"/><path d="M 0 600.001 L 0 1200.002 600.250 1199.751 L 1200.500 1199.500 1200.751 599.750 L 1201.002 0 600.501 0 L 0 0 0 600.001 M 0.497 600.500 C 0.497 930.500, 0.611 1065.649, 0.750 900.832 C 0.889 736.015, 0.889 466.015, 0.750 300.832 C 0.611 135.649, 0.497 270.500, 0.497 600.500 M 569.118 481.358 L 567.913 482.809 568.207 522.655 L 568.500 562.500 570.386 565.614 C 571.423 567.327, 573.517 569.465, 575.040 570.364 C 576.563 571.264, 579.855 572, 582.357 572 C 584.859 572, 588.052 571.478, 589.453 570.839 C 591.286 570.004, 592 568.906, 592 566.921 C 592 565.405, 591.727 563.452, 591.393 562.582 C 590.967 561.472, 589.476 561, 586.393 561 C 583.977 561, 581.911 560.888, 581.801 560.750 C 581.692 560.612, 581.354 542.500, 581.051 520.500 L 580.500 480.500 575.411 480.203 C 571.889 479.998, 569.951 480.354, 569.118 481.358 M 428.416 487.358 C 428.129 488.105, 431.580 496.992, 436.084 507.108 C 440.588 517.224, 444.287 525.953, 444.303 526.506 C 444.320 527.060, 440.166 536.637, 435.072 547.788 C 429.978 558.940, 426.073 568.747, 426.393 569.582 L 426.976 571.101 432.641 570.800 L 438.306 570.500 445.384 554.250 C 449.278 545.313, 452.699 538, 452.988 538 C 453.276 538, 456.660 545.313, 460.506 554.250 L 467.500 570.500 473.262 570.800 L 479.024 571.101 479.634 569.512 C 479.987 568.593, 476.367 559.291, 471.038 547.422 L 461.832 526.921 462.816 524.210 C 463.358 522.720, 467.247 514.132, 471.460 505.126 C 475.672 496.120, 478.872 488.110, 478.571 487.326 L 478.024 485.899 472.339 486.200 L 466.654 486.500 460.326 500.918 C 456.845 508.848, 453.848 515.486, 453.664 515.669 C 453.480 515.853, 450.708 509.815, 447.503 502.252 C 444.298 494.688, 441.243 487.938, 440.715 487.250 C 440.156 486.522, 437.495 486, 434.346 486 C 430.712 486, 428.766 486.446, 428.416 487.358 M 517.500 508.842 C 515.850 509.850, 513.862 511.448, 513.083 512.392 L 511.665 514.109 510.381 511.054 L 509.097 508 505.298 508.015 C 503.209 508.024, 500.882 508.422, 500.126 508.901 L 498.752 509.771 498.935 551.604 C 499.060 580.364, 499.462 593.851, 500.220 594.765 C 500.941 595.634, 503.084 595.991, 506.411 595.797 L 511.500 595.500 511.778 581.233 L 512.055 566.965 515.760 569.483 L 519.464 572 524.500 572 L 529.536 572 533.166 569.533 C 535.162 568.177, 537.699 565.589, 538.802 563.783 C 539.906 561.978, 541.527 558.056, 542.405 555.068 C 543.405 551.662, 543.996 545.883, 543.988 539.568 C 543.982 534.031, 543.335 527.090, 542.551 524.144 C 541.766 521.197, 539.954 517.017, 538.522 514.854 C 537.091 512.692, 534.475 510.041, 532.710 508.965 C 530.779 507.787, 527.707 507.007, 525 507.007 C 522.393 507.007, 519.238 507.779, 517.500 508.842 M 622.312 508.945 C 619.859 510.059, 616.843 512.614, 615.036 515.110 C 613.337 517.454, 611.232 521.832, 610.358 524.839 C 609.421 528.064, 608.771 534.036, 608.774 539.403 C 608.776 544.406, 609.325 550.522, 609.994 552.994 C 610.662 555.466, 612.042 559.122, 613.060 561.119 C 614.079 563.115, 616.271 565.891, 617.931 567.288 C 619.591 568.685, 622.580 570.366, 624.574 571.024 C 626.567 571.682, 631.026 572.040, 634.482 571.820 L 640.767 571.420 644.801 568.750 C 647.664 566.856, 649.746 564.231, 651.971 559.710 L 655.108 553.338 655.693 544.306 C 656.053 538.749, 655.798 532.730, 655.030 528.661 C 654.311 524.851, 652.451 519.840, 650.641 516.838 C 648.465 513.229, 646.146 510.918, 643.093 509.315 L 638.685 507 632.593 507.022 C 628.782 507.036, 624.931 507.756, 622.312 508.945 M 698.500 508.834 C 696.850 509.868, 694.613 511.711, 693.529 512.929 L 691.559 515.145 690.446 511.822 L 689.334 508.500 685.684 508.191 C 683.677 508.021, 681.276 508.306, 680.350 508.824 L 678.666 509.767 678.910 539.124 C 679.070 558.393, 679.527 568.930, 680.238 569.787 C 680.939 570.631, 683.123 570.988, 686.411 570.797 L 691.500 570.500 692 547.160 L 692.500 523.820 694.861 521.910 C 696.159 520.859, 697.959 519.954, 698.861 519.899 C 699.762 519.843, 701.930 519.875, 703.677 519.969 C 705.995 520.094, 707.160 519.570, 707.983 518.032 C 708.603 516.872, 708.974 514.028, 708.806 511.712 L 708.500 507.500 705 507.228 C 702.891 507.063, 700.308 507.702, 698.500 508.834 M 739.030 508.113 C 737.671 508.655, 735.029 510.266, 733.159 511.692 C 731.287 513.120, 728.677 516.648, 727.353 519.541 C 726.030 522.430, 724.592 527.746, 724.158 531.353 C 723.723 534.960, 723.491 539.619, 723.640 541.706 C 723.790 543.793, 724.178 547.750, 724.502 550.500 C 724.827 553.250, 726.309 557.733, 727.796 560.463 C 729.328 563.273, 732.316 566.697, 734.689 568.359 L 738.877 571.292 746.309 571.769 C 751.632 572.111, 755.157 571.776, 758.727 570.591 C 761.469 569.680, 764.721 567.861, 765.954 566.549 L 768.195 564.164 767.503 561.014 C 767.123 559.282, 766.263 557.654, 765.593 557.397 C 764.923 557.140, 762.378 557.836, 759.937 558.943 C 757.215 560.178, 753.334 560.965, 749.896 560.978 L 744.292 561 741.727 558.623 C 740.316 557.315, 738.678 554.503, 738.086 552.373 C 737.495 550.243, 737.009 547.487, 737.006 546.250 L 737 544 751.750 543.985 C 759.862 543.976, 767.175 543.541, 768 543.017 L 769.500 542.065 769.283 534.900 C 769.163 530.960, 768.363 525.322, 767.506 522.372 C 766.648 519.422, 764.503 515.365, 762.739 513.355 C 760.975 511.346, 758.076 509.094, 756.298 508.351 C 754.519 507.608, 750.462 507.029, 747.282 507.063 C 744.102 507.098, 740.388 507.570, 739.030 508.113 M 514.960 521.043 L 512 524.212 512 540.533 L 512 556.855 514.635 558.927 C 516.248 560.197, 518.740 561, 521.062 561 L 524.855 561 526.853 558.459 C 527.952 557.062, 529.335 553.665, 529.926 550.910 C 530.517 548.155, 530.989 542.661, 530.976 538.701 C 530.963 534.740, 530.543 529.735, 530.043 527.577 C 529.542 525.420, 528.271 522.495, 527.217 521.077 C 525.880 519.279, 524.186 518.405, 521.610 518.187 L 517.920 517.874 514.960 521.043 M 626.235 520.250 C 625.073 521.487, 623.656 524.525, 623.085 527 C 622.515 529.475, 622.049 535.100, 622.049 539.500 C 622.049 543.900, 622.515 549.525, 623.085 552 C 623.656 554.475, 625.073 557.513, 626.235 558.750 C 627.621 560.226, 629.516 561, 631.740 561 C 633.605 561, 635.948 560.563, 636.945 560.029 C 637.943 559.495, 639.545 557.133, 640.505 554.779 L 642.251 550.500 642.236 539.500 L 642.221 528.500 640.490 524.221 C 639.538 521.867, 637.943 519.505, 636.945 518.971 C 635.948 518.437, 633.605 518, 631.740 518 C 629.516 518, 627.621 518.774, 626.235 520.250 M 741.150 520.340 C 739.941 521.627, 738.513 524.211, 737.976 526.083 C 737.439 527.955, 737 530.727, 737 532.243 L 737 535 747 535 L 757 535 756.994 532.250 C 756.991 530.737, 756.512 527.783, 755.929 525.685 C 755.347 523.587, 753.999 520.999, 752.935 519.935 C 751.696 518.696, 749.624 518, 747.174 518 C 744.456 518, 742.712 518.678, 741.150 520.340 M 464.511 649.398 L 462 651.909 462 657.455 L 462 663 460 663 L 458 663 458 666 L 458 669 459.975 669 L 461.949 669 462.225 684.750 L 462.500 700.500 466 700.500 L 469.500 700.500 469.775 684.814 L 470.050 669.128 472.775 668.814 L 475.500 668.500 475.500 666 L 475.500 663.500 472.698 663.179 L 469.896 662.857 470.198 658.179 L 470.500 653.500 473 653.481 L 475.500 653.462 475.500 650.481 L 475.500 647.500 471.261 647.193 L 467.023 646.886 464.511 649.398 M 806.451 648.267 C 806.184 648.964, 806.085 661.002, 806.232 675.017 L 806.500 700.500 810.250 700.810 L 814 701.121 814 687.060 L 814 673 816 671 C 817.100 669.900, 819.098 669, 820.441 669 C 821.784 669, 823.246 669.563, 823.691 670.250 C 824.136 670.938, 824.725 678.025, 825 686 L 825.500 700.500 829 700.500 L 832.500 700.500 832.776 685.251 L 833.052 670.001 831.520 667.039 C 830.475 665.018, 828.741 663.703, 826.064 662.901 L 822.140 661.725 818.070 663.847 L 814 665.968 814 656.484 L 814 647 810.469 647 C 808.526 647, 806.718 647.570, 806.451 648.267 M 259.450 652.271 C 259.181 652.970, 259.083 664.107, 259.231 677.021 L 259.500 700.500 270.130 700.783 L 280.761 701.065 281.349 699.533 C 281.673 698.690, 281.678 697.325, 281.362 696.500 L 280.786 695 273.893 695 L 267 695 267 673 L 267 651 263.469 651 C 261.526 651, 259.718 651.572, 259.450 652.271 M 641.134 657.698 C 640.044 661.439, 637.093 672.176, 634.576 681.558 C 632.059 690.940, 630 699.180, 630 699.869 C 630 700.704, 631.248 701.017, 633.750 700.810 L 637.500 700.500 638.833 696 C 639.566 693.525, 640.340 690.938, 640.552 690.250 C 640.811 689.410, 643.175 689, 647.763 689 L 654.589 689 656.045 694.750 L 657.500 700.500 661.250 700.810 L 665 701.121 664.983 699.310 C 664.974 698.315, 662.159 687.150, 658.728 674.500 L 652.489 651.500 647.802 651.198 L 643.116 650.895 641.134 657.698 M 644.905 672.075 L 642.310 683 647.674 683 L 653.038 683 652.471 680.750 C 652.159 679.513, 650.913 674.596, 649.702 669.825 L 647.500 661.151 644.905 672.075 M 300 663.752 C 297.722 664.889, 295.714 667.058, 294.250 669.962 L 292 674.424 292.022 681.962 C 292.037 687.186, 292.625 690.781, 293.938 693.672 C 294.980 695.967, 297.076 698.659, 298.597 699.655 C 300.440 700.863, 303.241 701.467, 307 701.467 C 310.694 701.467, 313.563 700.861, 315.319 699.710 C 317.086 698.553, 318 697.070, 318 695.360 L 318 692.767 315.250 693.444 C 313.738 693.816, 311.268 694.369, 309.763 694.672 C 308.257 694.975, 305.972 694.959, 304.684 694.636 C 303.396 694.312, 301.816 692.891, 301.171 691.477 C 300.527 690.063, 300 688.044, 300 686.990 L 300 685.075 309.250 684.788 L 318.500 684.500 318.802 679.261 C 319.010 675.648, 318.480 672.613, 317.093 669.478 L 315.083 664.932 311.573 663.466 C 309.643 662.660, 307.037 662.001, 305.782 662.002 C 304.527 662.002, 301.925 662.790, 300 663.752 M 339.608 663.329 C 337.467 663.975, 335.258 665.229, 334.699 666.116 C 334.139 667.003, 333.984 668.515, 334.353 669.478 C 334.840 670.747, 335.638 671.041, 337.262 670.550 C 338.493 670.177, 341.409 669.618, 343.742 669.307 C 346.444 668.947, 348.531 669.196, 349.492 669.993 C 350.321 670.682, 351 672.481, 351 673.992 L 351 676.740 346.686 677.226 C 344.314 677.494, 341.092 678.340, 339.526 679.106 C 337.961 679.873, 335.757 681.747, 334.629 683.271 C 333.188 685.219, 332.622 687.397, 332.727 690.602 C 332.809 693.109, 333.577 696.231, 334.434 697.539 C 335.291 698.847, 337.762 700.448, 339.926 701.096 L 343.860 702.275 347.961 700.137 L 352.063 697.999 352.638 699.500 C 352.955 700.325, 354.178 700.993, 355.357 700.985 C 356.536 700.976, 357.983 700.639, 358.573 700.235 C 359.302 699.736, 359.462 694.484, 359.073 683.851 L 358.500 668.203 356.600 666.107 C 355.555 664.954, 353.080 663.561, 351.100 663.011 C 349.120 662.461, 346.600 662.043, 345.500 662.082 C 344.400 662.122, 341.749 662.682, 339.608 663.329 M 385.750 663.744 C 384.238 664.690, 383 665.809, 383 666.232 C 383 666.654, 382.602 667, 382.117 667 C 381.631 667, 380.989 666.067, 380.691 664.926 L 380.149 662.853 377.324 663.176 L 374.500 663.500 374.500 682 L 374.500 700.500 378 700.500 L 381.500 700.500 381.778 686.755 L 382.056 673.009 384.376 671.489 C 385.652 670.654, 387.776 670.089, 389.098 670.235 L 391.500 670.500 391.500 666.514 C 391.500 663.748, 391.041 662.451, 390 662.277 C 389.175 662.139, 387.262 662.799, 385.750 663.744 M 414.523 663.565 C 412.885 664.419, 411.198 665.653, 410.773 666.309 C 410.254 667.108, 409.792 666.742, 409.369 665.196 L 408.739 662.893 405.619 663.196 L 402.500 663.500 402.500 682 L 402.500 700.500 406.250 700.810 L 410 701.121 410 687.060 L 410 673 412 671 C 413.100 669.900, 415.098 669, 416.441 669 C 417.784 669, 419.246 669.563, 419.691 670.250 C 420.136 670.938, 420.725 678.025, 421 686 L 421.500 700.500 425 700.500 L 428.500 700.500 428.778 685.525 C 428.963 675.549, 428.655 669.582, 427.856 667.652 C 427.144 665.934, 425.314 664.193, 423.360 663.377 C 421.547 662.620, 419.487 662.003, 418.782 662.006 C 418.077 662.010, 416.160 662.711, 414.523 663.565 M 500.750 663.744 C 499.238 664.690, 498 665.809, 498 666.232 C 498 666.654, 497.602 667, 497.117 667 C 496.631 667, 495.989 666.067, 495.691 664.926 L 495.149 662.853 492.324 663.176 L 489.500 663.500 489.500 682 L 489.500 700.500 493 700.500 L 496.500 700.500 496.778 686.755 L 497.056 673.009 499.376 671.489 C 500.652 670.654, 502.776 670.089, 504.098 670.235 L 506.500 670.500 506.500 666.514 C 506.500 663.748, 506.041 662.451, 505 662.277 C 504.175 662.139, 502.262 662.799, 500.750 663.744 M 524 663.703 C 521.754 664.856, 519.694 667.099, 518.250 669.962 L 516 674.424 516 682 L 516 689.576 518.250 694.038 C 519.691 696.896, 521.758 699.148, 524 700.302 C 526.283 701.478, 528.817 701.944, 531.288 701.642 C 533.372 701.388, 536.222 700.429, 537.622 699.512 C 539.022 698.595, 541.020 695.967, 542.062 693.672 C 543.382 690.765, 543.956 687.225, 543.956 682 C 543.956 676.775, 543.382 673.235, 542.062 670.328 C 541.020 668.033, 539.117 665.469, 537.834 664.628 C 536.550 663.788, 533.700 662.832, 531.500 662.504 C 528.668 662.081, 526.478 662.431, 524 663.703 M 569.754 663.955 C 567.693 665.080, 565.781 666, 565.504 666 C 565.227 666, 565 665.296, 565 664.437 L 565 662.873 561.750 663.187 L 558.500 663.500 558.500 682 L 558.500 700.500 562.250 700.810 L 566 701.121 566 686.715 L 566 672.310 567.829 670.655 C 568.835 669.745, 570.579 669, 571.706 669 C 572.833 669, 574.247 669.593, 574.849 670.318 C 575.498 671.100, 576.056 677.509, 576.221 686.068 L 576.500 700.500 580 700.500 L 583.500 700.500 583.780 686.546 L 584.059 672.592 585.685 670.796 C 586.579 669.808, 588.349 669, 589.620 669 C 590.890 669, 592.395 669.870, 592.965 670.934 C 593.538 672.006, 594 679.169, 594 686.995 L 594 701.121 597.750 700.810 L 601.500 700.500 601.805 686.500 C 601.987 678.169, 601.658 670.950, 600.992 668.672 L 599.873 664.845 596.469 663.422 C 594.596 662.640, 592.438 662, 591.672 662 C 590.906 662, 588.693 663.076, 586.754 664.392 L 583.229 666.784 581.361 664.917 C 580.334 663.889, 578.145 662.792, 576.497 662.479 C 574.489 662.098, 572.264 662.585, 569.754 663.955 M 689.523 663.565 C 687.885 664.419, 686.198 665.653, 685.773 666.309 C 685.254 667.108, 684.792 666.742, 684.369 665.196 L 683.739 662.893 680.619 663.196 L 677.500 663.500 677.500 682 L 677.500 700.500 681.250 700.810 L 685 701.121 685 687.060 L 685 673 687 671 C 688.100 669.900, 690.098 669, 691.441 669 C 692.784 669, 694.246 669.563, 694.691 670.250 C 695.136 670.938, 695.725 678.025, 696 686 L 696.500 700.500 700 700.500 L 703.500 700.500 703.778 685.525 C 703.963 675.549, 703.655 669.582, 702.856 667.652 C 702.144 665.934, 700.314 664.193, 698.360 663.377 C 696.547 662.620, 694.487 662.003, 693.782 662.006 C 693.077 662.010, 691.160 662.711, 689.523 663.565 M 855 663.752 C 852.722 664.889, 850.714 667.058, 849.250 669.962 L 847 674.424 847.022 681.962 C 847.037 687.186, 847.625 690.781, 848.938 693.672 C 849.980 695.967, 852.076 698.659, 853.597 699.655 C 855.440 700.863, 858.241 701.467, 862 701.467 C 865.694 701.467, 868.563 700.861, 870.319 699.710 C 872.086 698.553, 873 697.070, 873 695.360 L 873 692.767 870.250 693.444 C 868.737 693.816, 866.268 694.369, 864.763 694.672 C 863.257 694.975, 860.972 694.959, 859.684 694.636 C 858.396 694.312, 856.816 692.891, 856.171 691.477 C 855.527 690.063, 855 688.044, 855 686.990 L 855 685.075 864.250 684.788 L 873.500 684.500 873.802 679.261 C 874.010 675.648, 873.480 672.613, 872.093 669.478 L 870.083 664.932 866.573 663.466 C 864.643 662.660, 862.037 662.001, 860.782 662.002 C 859.527 662.002, 856.925 662.790, 855 663.752 M 900.750 663.744 C 899.237 664.690, 898 665.809, 898 666.232 C 898 666.654, 897.602 667, 897.117 667 C 896.631 667, 895.989 666.067, 895.691 664.926 L 895.149 662.853 892.324 663.176 L 889.500 663.500 889.500 682 L 889.500 700.500 893 700.500 L 896.500 700.500 896.778 686.755 L 897.056 673.009 899.376 671.489 C 900.652 670.654, 902.776 670.089, 904.098 670.235 L 906.500 670.500 906.500 666.514 C 906.500 663.748, 906.041 662.451, 905 662.277 C 904.175 662.139, 902.263 662.799, 900.750 663.744 M 924 663.752 C 921.722 664.889, 919.714 667.058, 918.250 669.962 L 916 674.424 916.022 681.962 C 916.037 687.186, 916.625 690.781, 917.938 693.672 C 918.980 695.967, 921.076 698.659, 922.597 699.655 C 924.440 700.863, 927.241 701.467, 931 701.467 C 934.694 701.467, 937.563 700.861, 939.319 699.710 C 941.086 698.553, 942 697.070, 942 695.360 L 942 692.767 939.250 693.444 C 937.737 693.816, 935.268 694.369, 933.763 694.672 C 932.257 694.975, 929.972 694.959, 928.684 694.636 C 927.396 694.312, 925.816 692.891, 925.171 691.477 C 924.527 690.063, 924 688.044, 924 686.990 L 924 685.075 933.250 684.788 L 942.500 684.500 942.802 679.261 C 943.010 675.648, 942.480 672.613, 941.093 669.478 L 939.083 664.932 935.573 663.466 C 933.643 662.660, 931.037 662.001, 929.782 662.002 C 928.527 662.002, 925.925 662.790, 924 663.752 M 716.552 663.916 C 716.241 664.419, 718.387 673.100, 721.322 683.206 L 726.658 701.580 724.420 708.214 C 723.189 711.863, 722.441 715.108, 722.758 715.425 C 723.074 715.741, 724.816 716, 726.628 716 L 729.923 716 730.904 712.250 C 731.444 710.188, 734.344 699.275, 737.350 688 C 740.355 676.725, 742.969 666.600, 743.157 665.500 L 743.500 663.500 739.784 663.192 L 736.067 662.883 735.517 665.192 C 735.214 666.461, 733.919 672.675, 732.638 679 L 730.311 690.500 729.240 686.500 C 728.651 684.300, 727.194 678.112, 726.002 672.750 L 723.836 663 720.477 663 C 718.630 663, 716.863 663.412, 716.552 663.916 M 753.033 664.690 C 753.051 665.685, 754.740 674.150, 756.786 683.500 L 760.507 700.500 764.669 700.803 L 768.831 701.107 769.358 699.303 C 769.648 698.312, 770.671 692.448, 771.633 686.273 C 772.594 680.099, 773.504 675.171, 773.656 675.323 C 773.808 675.474, 774.632 680.076, 775.488 685.549 C 776.344 691.022, 777.300 696.761, 777.613 698.303 L 778.182 701.106 782.338 700.803 L 786.493 700.500 790.214 683.500 C 792.260 674.150, 793.949 665.712, 793.967 664.750 L 794 663 790.500 663 C 788.575 663, 786.968 663.112, 786.929 663.250 C 786.890 663.388, 785.849 670.250, 784.616 678.500 L 782.374 693.500 779.937 678.500 L 777.500 663.500 774.105 663.176 C 772.238 662.998, 770.388 663.372, 769.994 664.009 C 769.601 664.646, 768.457 670.970, 767.453 678.063 C 766.449 685.157, 765.373 690.707, 765.063 690.398 C 764.754 690.088, 763.600 683.910, 762.500 676.668 L 760.500 663.500 756.750 663.190 L 753 662.879 753.033 664.690 M 302.074 670.411 C 301.430 671.187, 300.641 673.437, 300.321 675.411 L 299.738 679 305.869 679 L 312 679 312 677.468 C 312 676.625, 311.348 674.375, 310.551 672.468 L 309.102 669 306.173 669 C 304.563 669, 302.718 669.635, 302.074 670.411 M 525.872 670.653 C 525.035 671.662, 524.371 675.459, 524.168 680.403 C 523.985 684.856, 524.316 689.749, 524.903 691.276 C 525.490 692.802, 526.653 694.313, 527.487 694.633 C 528.322 694.954, 530.083 694.945, 531.402 694.614 C 532.920 694.233, 534.204 692.853, 534.900 690.857 C 535.505 689.121, 536 685.054, 536 681.819 C 536 678.583, 535.348 674.375, 534.551 672.468 L 533.102 669 530.173 669 C 528.563 669, 526.627 669.744, 525.872 670.653 M 857.074 670.411 C 856.430 671.187, 855.641 673.437, 855.321 675.411 L 854.738 679 860.869 679 L 867 679 867 677.468 C 867 676.625, 866.348 674.375, 865.551 672.468 L 864.102 669 861.173 669 C 859.563 669, 857.718 669.635, 857.074 670.411 M 926.074 670.411 C 925.430 671.187, 924.641 673.437, 924.321 675.411 L 923.738 679 929.869 679 L 936 679 936 677.468 C 936 676.625, 935.348 674.375, 934.551 672.468 L 933.102 669 930.173 669 C 928.563 669, 926.718 669.635, 926.074 670.411 M 344.387 683.433 C 342.474 684.266, 341.103 685.697, 340.832 687.144 C 340.590 688.440, 340.658 690.625, 340.985 692 C 341.415 693.810, 342.351 694.590, 344.378 694.825 C 346.021 695.016, 347.966 694.436, 349.088 693.420 C 350.469 692.170, 351 690.345, 351 686.845 L 351 682 349.250 682.039 C 348.288 682.061, 346.099 682.688, 344.387 683.433" stroke="none" fill="#ffffff" fill-rule="evenodd"/><path d="M 0 600.001 L 0 1200.002 600.250 1199.751 L 1200.500 1199.500 1200.751 599.750 L 1201.002 0 600.501 0 L 0 0 0 600.001 M 0.497 600.500 C 0.497 930.500, 0.611 1065.649, 0.750 900.832 C 0.889 736.015, 0.889 466.015, 0.750 300.832 C 0.611 135.649, 0.497 270.500, 0.497 600.500 M 569.118 481.358 L 567.913 482.809 568.207 522.655 L 568.500 562.500 570.386 565.614 C 571.423 567.327, 573.517 569.465, 575.040 570.364 C 576.563 571.264, 579.855 572, 582.357 572 C 584.859 572, 588.052 571.478, 589.453 570.839 C 591.286 570.004, 592 568.906, 592 566.921 C 592 565.405, 591.727 563.452, 591.393 562.582 C 590.967 561.472, 589.476 561, 586.393 561 C 583.977 561, 581.911 560.888, 581.801 560.750 C 581.692 560.612, 581.354 542.500, 581.051 520.500 L 580.500 480.500 575.411 480.203 C 571.889 479.998, 569.951 480.354, 569.118 481.358 M 428.416 487.358 C 428.129 488.105, 431.580 496.992, 436.084 507.108 C 440.588 517.224, 444.287 525.953, 444.303 526.506 C 444.320 527.060, 440.166 536.637, 435.072 547.788 C 429.978 558.940, 426.073 568.747, 426.393 569.582 L 426.976 571.101 432.641 570.800 L 438.306 570.500 445.384 554.250 C 449.278 545.313, 452.699 538, 452.988 538 C 453.276 538, 456.660 545.313, 460.506 554.250 L 467.500 570.500 473.262 570.800 L 479.024 571.101 479.634 569.512 C 479.987 568.593, 476.367 559.291, 471.038 547.422 L 461.832 526.921 462.816 524.210 C 463.358 522.720, 467.247 514.132, 471.460 505.126 C 475.672 496.120, 478.872 488.110, 478.571 487.326 L 478.024 485.899 472.339 486.200 L 466.654 486.500 460.326 500.918 C 456.845 508.848, 453.848 515.486, 453.664 515.669 C 453.480 515.853, 450.708 509.815, 447.503 502.252 C 444.298 494.688, 441.243 487.938, 440.715 487.250 C 440.156 486.522, 437.495 486, 434.346 486 C 430.712 486, 428.766 486.446, 428.416 487.358 M 517.500 508.842 C 515.850 509.850, 513.862 511.448, 513.083 512.392 L 511.665 514.109 510.381 511.054 L 509.097 508 505.298 508.015 C 503.209 508.024, 500.882 508.422, 500.126 508.901 L 498.752 509.771 498.935 551.604 C 499.060 580.364, 499.462 593.851, 500.220 594.765 C 500.941 595.634, 503.084 595.991, 506.411 595.797 L 511.500 595.500 511.778 581.233 L 512.055 566.965 515.760 569.483 L 519.464 572 524.500 572 L 529.536 572 533.166 569.533 C 535.162 568.177, 537.699 565.589, 538.802 563.783 C 539.906 561.978, 541.527 558.056, 542.405 555.068 C 543.405 551.662, 543.996 545.883, 543.988 539.568 C 543.982 534.031, 543.335 527.090, 542.551 524.144 C 541.766 521.197, 539.954 517.017, 538.522 514.854 C 537.091 512.692, 534.475 510.041, 532.710 508.965 C 530.779 507.787, 527.707 507.007, 525 507.007 C 522.393 507.007, 519.238 507.779, 517.500 508.842 M 622.312 508.945 C 619.859 510.059, 616.843 512.614, 615.036 515.110 C 613.337 517.454, 611.232 521.832, 610.358 524.839 C 609.421 528.064, 608.771 534.036, 608.774 539.403 C 608.776 544.406, 609.325 550.522, 609.994 552.994 C 610.662 555.466, 612.042 559.122, 613.060 561.119 C 614.079 563.115, 616.271 565.891, 617.931 567.288 C 619.591 568.685, 622.580 570.366, 624.574 571.024 C 626.567 571.682, 631.026 572.040, 634.482 571.820 L 640.767 571.420 644.801 568.750 C 647.664 566.856, 649.746 564.231, 651.971 559.710 L 655.108 553.338 655.693 544.306 C 656.053 538.749, 655.798 532.730, 655.030 528.661 C 654.311 524.851, 652.451 519.840, 650.641 516.838 C 648.465 513.229, 646.146 510.918, 643.093 509.315 L 638.685 507 632.593 507.022 C 628.782 507.036, 624.931 507.756, 622.312 508.945 M 698.500 508.834 C 696.850 509.868, 694.613 511.711, 693.529 512.929 L 691.559 515.145 690.446 511.822 L 689.334 508.500 685.684 508.191 C 683.677 508.021, 681.276 508.306, 680.350 508.824 L 678.666 509.767 678.910 539.124 C 679.070 558.393, 679.527 568.930, 680.238 569.787 C 680.939 570.631, 683.123 570.988, 686.411 570.797 L 691.500 570.500 692 547.160 L 692.500 523.820 694.861 521.910 C 696.159 520.859, 697.959 519.954, 698.861 519.899 C 699.762 519.843, 701.930 519.875, 703.677 519.969 C 705.995 520.094, 707.160 519.570, 707.983 518.032 C 708.603 516.872, 708.974 514.028, 708.806 511.712 L 708.500 507.500 705 507.228 C 702.891 507.063, 700.308 507.702, 698.500 508.834 M 739.030 508.113 C 737.671 508.655, 735.029 510.266, 733.159 511.692 C 731.287 513.120, 728.677 516.648, 727.353 519.541 C 726.030 522.430, 724.592 527.746, 724.158 531.353 C 723.723 534.960, 723.491 539.619, 723.640 541.706 C 723.790 543.793, 724.178 547.750, 724.502 550.500 C 724.827 553.250, 726.309 557.733, 727.796 560.463 C 729.328 563.273, 732.316 566.697, 734.689 568.359 L 738.877 571.292 746.309 571.769 C 751.632 572.111, 755.157 571.776, 758.727 570.591 C 761.469 569.680, 764.721 567.861, 765.954 566.549 L 768.195 564.164 767.503 561.014 C 767.123 559.282, 766.263 557.654, 765.593 557.397 C 764.923 557.140, 762.378 557.836, 759.937 558.943 C 757.215 560.178, 753.334 560.965, 749.896 560.978 L 744.292 561 741.727 558.623 C 740.316 557.315, 738.678 554.503, 738.086 552.373 C 737.495 550.243, 737.009 547.487, 737.006 546.250 L 737 544 751.750 543.985 C 759.862 543.976, 767.175 543.541, 768 543.017 L 769.500 542.065 769.283 534.900 C 769.163 530.960, 768.363 525.322, 767.506 522.372 C 766.648 519.422, 764.503 515.365, 762.739 513.355 C 760.975 511.346, 758.076 509.094, 756.298 508.351 C 754.519 507.608, 750.462 507.029, 747.282 507.063 C 744.102 507.098, 740.388 507.570, 739.030 508.113 M 514.960 521.043 L 512 524.212 512 540.533 L 512 556.855 514.635 558.927 C 516.248 560.197, 518.740 561, 521.062 561 L 524.855 561 526.853 558.459 C 527.952 557.062, 529.335 553.665, 529.926 550.910 C 530.517 548.155, 530.989 542.661, 530.976 538.701 C 530.963 534.740, 530.543 529.735, 530.043 527.577 C 529.542 525.420, 528.271 522.495, 527.217 521.077 C 525.880 519.279, 524.186 518.405, 521.610 518.187 L 517.920 517.874 514.960 521.043 M 626.235 520.250 C 625.073 521.487, 623.656 524.525, 623.085 527 C 622.515 529.475, 622.049 535.100, 622.049 539.500 C 622.049 543.900, 622.515 549.525, 623.085 552 C 623.656 554.475, 625.073 557.513, 626.235 558.750 C 627.621 560.226, 629.516 561, 631.740 561 C 633.605 561, 635.948 560.563, 636.945 560.029 C 637.943 559.495, 639.545 557.133, 640.505 554.779 L 642.251 550.500 642.236 539.500 L 642.221 528.500 640.490 524.221 C 639.538 521.867, 637.943 519.505, 636.945 518.971 C 635.948 518.437, 633.605 518, 631.740 518 C 629.516 518, 627.621 518.774, 626.235 520.250 M 741.150 520.340 C 739.941 521.627, 738.513 524.211, 737.976 526.083 C 737.439 527.955, 737 530.727, 737 532.243 L 737 535 747 535 L 757 535 756.994 532.250 C 756.991 530.737, 756.512 527.783, 755.929 525.685 C 755.347 523.587, 753.999 520.999, 752.935 519.935 C 751.696 518.696, 749.624 518, 747.174 518 C 744.456 518, 742.712 518.678, 741.150 520.340 M 464.511 649.398 L 462 651.909 462 657.455 L 462 663 460 663 L 458 663 458 666 L 458 669 459.975 669 L 461.949 669 462.225 684.750 L 462.500 700.500 466 700.500 L 469.500 700.500 469.775 684.814 L 470.050 669.128 472.775 668.814 L 475.500 668.500 475.500 666 L 475.500 663.500 472.698 663.179 L 469.896 662.857 470.198 658.179 L 470.500 653.500 473 653.481 L 475.500 653.462 475.500 650.481 L 475.500 647.500 471.261 647.193 L 467.023 646.886 464.511 649.398 M 806.451 648.267 C 806.184 648.964, 806.085 661.002, 806.232 675.017 L 806.500 700.500 810.250 700.810 L 814 701.121 814 687.060 L 814 673 816 671 C 817.100 669.900, 819.098 669, 820.441 669 C 821.784 669, 823.246 669.563, 823.691 670.250 C 824.136 670.938, 824.725 678.025, 825 686 L 825.500 700.500 829 700.500 L 832.500 700.500 832.776 685.251 L 833.052 670.001 831.520 667.039 C 830.475 665.018, 828.741 663.703, 826.064 662.901 L 822.140 661.725 818.070 663.847 L 814 665.968 814 656.484 L 814 647 810.469 647 C 808.526 647, 806.718 647.570, 806.451 648.267 M 259.450 652.271 C 259.181 652.970, 259.083 664.107, 259.231 677.021 L 259.500 700.500 270.130 700.783 L 280.761 701.065 281.349 699.533 C 281.673 698.690, 281.678 697.325, 281.362 696.500 L 280.786 695 273.893 695 L 267 695 267 673 L 267 651 263.469 651 C 261.526 651, 259.718 651.572, 259.450 652.271 M 641.134 657.698 C 640.044 661.439, 637.093 672.176, 634.576 681.558 C 632.059 690.940, 630 699.180, 630 699.869 C 630 700.704, 631.248 701.017, 633.750 700.810 L 637.500 700.500 638.833 696 C 639.566 693.525, 640.340 690.938, 640.552 690.250 C 640.811 689.410, 643.175 689, 647.763 689 L 654.589 689 656.045 694.750 L 657.500 700.500 661.250 700.810 L 665 701.121 664.983 699.310 C 664.974 698.315, 662.159 687.150, 658.728 674.500 L 652.489 651.500 647.802 651.198 L 643.116 650.895 641.134 657.698 M 644.905 672.075 L 642.310 683 647.674 683 L 653.038 683 652.471 680.750 C 652.159 679.513, 650.913 674.596, 649.702 669.825 L 647.500 661.151 644.905 672.075 M 300 663.752 C 297.722 664.889, 295.714 667.058, 294.250 669.962 L 292 674.424 292.022 681.962 C 292.037 687.186, 292.625 690.781, 293.938 693.672 C 294.980 695.967, 297.076 698.659, 298.597 699.655 C 300.440 700.863, 303.241 701.467, 307 701.467 C 310.694 701.467, 313.563 700.861, 315.319 699.710 C 317.086 698.553, 318 697.070, 318 695.360 L 318 692.767 315.250 693.444 C 313.738 693.816, 311.268 694.369, 309.763 694.672 C 308.257 694.975, 305.972 694.959, 304.684 694.636 C 303.396 694.312, 301.816 692.891, 301.171 691.477 C 300.527 690.063, 300 688.044, 300 686.990 L 300 685.075 309.250 684.788 L 318.500 684.500 318.802 679.261 C 319.010 675.648, 318.480 672.613, 317.093 669.478 L 315.083 664.932 311.573 663.466 C 309.643 662.660, 307.037 662.001, 305.782 662.002 C 304.527 662.002, 301.925 662.790, 300 663.752 M 339.608 663.329 C 337.467 663.975, 335.258 665.229, 334.699 666.116 C 334.139 667.003, 333.984 668.515, 334.353 669.478 C 334.840 670.747, 335.638 671.041, 337.262 670.550 C 338.493 670.177, 341.409 669.618, 343.742 669.307 C 346.444 668.947, 348.531 669.196, 349.492 669.993 C 350.321 670.682, 351 672.481, 351 673.992 L 351 676.740 346.686 677.226 C 344.314 677.494, 341.092 678.340, 339.526 679.106 C 337.961 679.873, 335.757 681.747, 334.629 683.271 C 333.188 685.219, 332.622 687.397, 332.727 690.602 C 332.809 693.109, 333.577 696.231, 334.434 697.539 C 335.291 698.847, 337.762 700.448, 339.926 701.096 L 343.860 702.275 347.961 700.137 L 352.063 697.999 352.638 699.500 C 352.955 700.325, 354.178 700.993, 355.357 700.985 C 356.536 700.976, 357.983 700.639, 358.573 700.235 C 359.302 699.736, 359.462 694.484, 359.073 683.851 L 358.500 668.203 356.600 666.107 C 355.555 664.954, 353.080 663.561, 351.100 663.011 C 349.120 662.461, 346.600 662.043, 345.500 662.082 C 344.400 662.122, 341.749 662.682, 339.608 663.329 M 385.750 663.744 C 384.238 664.690, 383 665.809, 383 666.232 C 383 666.654, 382.602 667, 382.117 667 C 381.631 667, 380.989 666.067, 380.691 664.926 L 380.149 662.853 377.324 663.176 L 374.500 663.500 374.500 682 L 374.500 700.500 378 700.500 L 381.500 700.500 381.778 686.755 L 382.056 673.009 384.376 671.489 C 385.652 670.654, 387.776 670.089, 389.098 670.235 L 391.500 670.500 391.500 666.514 C 391.500 663.748, 391.041 662.451, 390 662.277 C 389.175 662.139, 387.262 662.799, 385.750 663.744 M 414.523 663.565 C 412.885 664.419, 411.198 665.653, 410.773 666.309 C 410.254 667.108, 409.792 666.742, 409.369 665.196 L 408.739 662.893 405.619 663.196 L 402.500 663.500 402.500 682 L 402.500 700.500 406.250 700.810 L 410 701.121 410 687.060 L 410 673 412 671 C 413.100 669.900, 415.098 669, 416.441 669 C 417.784 669, 419.246 669.563, 419.691 670.250 C 420.136 670.938, 420.725 678.025, 421 686 L 421.500 700.500 425 700.500 L 428.500 700.500 428.778 685.525 C 428.963 675.549, 428.655 669.582, 427.856 667.652 C 427.144 665.934, 425.314 664.193, 423.360 663.377 C 421.547 662.620, 419.487 662.003, 418.782 662.006 C 418.077 662.010, 416.160 662.711, 414.523 663.565 M 500.750 663.744 C 499.238 664.690, 498 665.809, 498 666.232 C 498 666.654, 497.602 667, 497.117 667 C 496.631 667, 495.989 666.067, 495.691 664.926 L 495.149 662.853 492.324 663.176 L 489.500 663.500 489.500 682 L 489.500 700.500 493 700.500 L 496.500 700.500 496.778 686.755 L 497.056 673.009 499.376 671.489 C 500.652 670.654, 502.776 670.089, 504.098 670.235 L 506.500 670.500 506.500 666.514 C 506.500 663.748, 506.041 662.451, 505 662.277 C 504.175 662.139, 502.262 662.799, 500.750 663.744 M 524 663.703 C 521.754 664.856, 519.694 667.099, 518.250 669.962 L 516 674.424 516 682 L 516 689.576 518.250 694.038 C 519.691 696.896, 521.758 699.148, 524 700.302 C 526.283 701.478, 528.817 701.944, 531.288 701.642 C 533.372 701.388, 536.222 700.429, 537.622 699.512 C 539.022 698.595, 541.020 695.967, 542.062 693.672 C 543.382 690.765, 543.956 687.225, 543.956 682 C 543.956 676.775, 543.382 673.235, 542.062 670.328 C 541.020 668.033, 539.117 665.469, 537.834 664.628 C 536.550 663.788, 533.700 662.832, 531.500 662.504 C 528.668 662.081, 526.478 662.431, 524 663.703 M 569.754 663.955 C 567.693 665.080, 565.781 666, 565.504 666 C 565.227 666, 565 665.296, 565 664.437 L 565 662.873 561.750 663.187 L 558.500 663.500 558.500 682 L 558.500 700.500 562.250 700.810 L 566 701.121 566 686.715 L 566 672.310 567.829 670.655 C 568.835 669.745, 570.579 669, 571.706 669 C 572.833 669, 574.247 669.593, 574.849 670.318 C 575.498 671.100, 576.056 677.509, 576.221 686.068 L 576.500 700.500 580 700.500 L 583.500 700.500 583.780 686.546 L 584.059 672.592 585.685 670.796 C 586.579 669.808, 588.349 669, 589.620 669 C 590.890 669, 592.395 669.870, 592.965 670.934 C 593.538 672.006, 594 679.169, 594 686.995 L 594 701.121 597.750 700.810 L 601.500 700.500 601.805 686.500 C 601.987 678.169, 601.658 670.950, 600.992 668.672 L 599.873 664.845 596.469 663.422 C 594.596 662.640, 592.438 662, 591.672 662 C 590.906 662, 588.693 663.076, 586.754 664.392 L 583.229 666.784 581.361 664.917 C 580.334 663.889, 578.145 662.792, 576.497 662.479 C 574.489 662.098, 572.264 662.585, 569.754 663.955 M 689.523 663.565 C 687.885 664.419, 686.198 665.653, 685.773 666.309 C 685.254 667.108, 684.792 666.742, 684.369 665.196 L 683.739 662.893 680.619 663.196 L 677.500 663.500 677.500 682 L 677.500 700.500 681.250 700.810 L 685 701.121 685 687.060 L 685 673 687 671 C 688.100 669.900, 690.098 669, 691.441 669 C 692.784 669, 694.246 669.563, 694.691 670.250 C 695.136 670.938, 695.725 678.025, 696 686 L 696.500 700.500 700 700.500 L 703.500 700.500 703.778 685.525 C 703.963 675.549, 703.655 669.582, 702.856 667.652 C 702.144 665.934, 700.314 664.193, 698.360 663.377 C 696.547 662.620, 694.487 662.003, 693.782 662.006 C 693.077 662.010, 691.160 662.711, 689.523 663.565 M 855 663.752 C 852.722 664.889, 850.714 667.058, 849.250 669.962 L 847 674.424 847.022 681.962 C 847.037 687.186, 847.625 690.781, 848.938 693.672 C 849.980 695.967, 852.076 698.659, 853.597 699.655 C 855.440 700.863, 858.241 701.467, 862 701.467 C 865.694 701.467, 868.563 700.861, 870.319 699.710 C 872.086 698.553, 873 697.070, 873 695.360 L 873 692.767 870.250 693.444 C 868.737 693.816, 866.268 694.369, 864.763 694.672 C 863.257 694.975, 860.972 694.959, 859.684 694.636 C 858.396 694.312, 856.816 692.891, 856.171 691.477 C 855.527 690.063, 855 688.044, 855 686.990 L 855 685.075 864.250 684.788 L 873.500 684.500 873.802 679.261 C 874.010 675.648, 873.480 672.613, 872.093 669.478 L 870.083 664.932 866.573 663.466 C 864.643 662.660, 862.037 662.001, 860.782 662.002 C 859.527 662.002, 856.925 662.790, 855 663.752 M 900.750 663.744 C 899.237 664.690, 898 665.809, 898 666.232 C 898 666.654, 897.602 667, 897.117 667 C 896.631 667, 895.989 666.067, 895.691 664.926 L 895.149 662.853 892.324 663.176 L 889.500 663.500 889.500 682 L 889.500 700.500 893 700.500 L 896.500 700.500 896.778 686.755 L 897.056 673.009 899.376 671.489 C 900.652 670.654, 902.776 670.089, 904.098 670.235 L 906.500 670.500 906.500 666.514 C 906.500 663.748, 906.041 662.451, 905 662.277 C 904.175 662.139, 902.263 662.799, 900.750 663.744 M 924 663.752 C 921.722 664.889, 919.714 667.058, 918.250 669.962 L 916 674.424 916.022 681.962 C 916.037 687.186, 916.625 690.781, 917.938 693.672 C 918.980 695.967, 921.076 698.659, 922.597 699.655 C 924.440 700.863, 927.241 701.467, 931 701.467 C 934.694 701.467, 937.563 700.861, 939.319 699.710 C 941.086 698.553, 942 697.070, 942 695.360 L 942 692.767 939.250 693.444 C 937.737 693.816, 935.268 694.369, 933.763 694.672 C 932.257 694.975, 929.972 694.959, 928.684 694.636 C 927.396 694.312, 925.816 692.891, 925.171 691.477 C 924.527 690.063, 924 688.044, 924 686.990 L 924 685.075 933.250 684.788 L 942.500 684.500 942.802 679.261 C 943.010 675.648, 942.480 672.613, 941.093 669.478 L 939.083 664.932 935.573 663.466 C 933.643 662.660, 931.037 662.001, 929.782 662.002 C 928.527 662.002, 925.925 662.790, 924 663.752 M 716.552 663.916 C 716.241 664.419, 718.387 673.100, 721.322 683.206 L 726.658 701.580 724.420 708.214 C 723.189 711.863, 722.441 715.108, 722.758 715.425 C 723.074 715.741, 724.816 716, 726.628 716 L 729.923 716 730.904 712.250 C 731.444 710.188, 734.344 699.275, 737.350 688 C 740.355 676.725, 742.969 666.600, 743.157 665.500 L 743.500 663.500 739.784 663.192 L 736.067 662.883 735.517 665.192 C 735.214 666.461, 733.919 672.675, 732.638 679 L 730.311 690.500 729.240 686.500 C 728.651 684.300, 727.194 678.112, 726.002 672.750 L 723.836 663 720.477 663 C 718.630 663, 716.863 663.412, 716.552 663.916 M 753.033 664.690 C 753.051 665.685, 754.740 674.150, 756.786 683.500 L 760.507 700.500 764.669 700.803 L 768.831 701.107 769.358 699.303 C 769.648 698.312, 770.671 692.448, 771.633 686.273 C 772.594 680.099, 773.504 675.171, 773.656 675.323 C 773.808 675.474, 774.632 680.076, 775.488 685.549 C 776.344 691.022, 777.300 696.761, 777.613 698.303 L 778.182 701.106 782.338 700.803 L 786.493 700.500 790.214 683.500 C 792.260 674.150, 793.949 665.712, 793.967 664.750 L 794 663 790.500 663 C 788.575 663, 786.968 663.112, 786.929 663.250 C 786.890 663.388, 785.849 670.250, 784.616 678.500 L 782.374 693.500 779.937 678.500 L 777.500 663.500 774.105 663.176 C 772.238 662.998, 770.388 663.372, 769.994 664.009 C 769.601 664.646, 768.457 670.970, 767.453 678.063 C 766.449 685.157, 765.373 690.707, 765.063 690.398 C 764.754 690.088, 763.600 683.910, 762.500 676.668 L 760.500 663.500 756.750 663.190 L 753 662.879 753.033 664.690 M 302.074 670.411 C 301.430 671.187, 300.641 673.437, 300.321 675.411 L 299.738 679 305.869 679 L 312 679 312 677.468 C 312 676.625, 311.348 674.375, 310.551 672.468 L 309.102 669 306.173 669 C 304.563 669, 302.718 669.635, 302.074 670.411 M 525.872 670.653 C 525.035 671.662, 524.371 675.459, 524.168 680.403 C 523.985 684.856, 524.316 689.749, 524.903 691.276 C 525.490 692.802, 526.653 694.313, 527.487 694.633 C 528.322 694.954, 530.083 694.945, 531.402 694.614 C 532.920 694.233, 534.204 692.853, 534.900 690.857 C 535.505 689.121, 536 685.054, 536 681.819 C 536 678.583, 535.348 674.375, 534.551 672.468 L 533.102 669 530.173 669 C 528.563 669, 526.627 669.744, 525.872 670.653 M 857.074 670.411 C 856.430 671.187, 855.641 673.437, 855.321 675.411 L 854.738 679 860.869 679 L 867 679 867 677.468 C 867 676.625, 866.348 674.375, 865.551 672.468 L 864.102 669 861.173 669 C 859.563 669, 857.718 669.635, 857.074 670.411 M 926.074 670.411 C 925.430 671.187, 924.641 673.437, 924.321 675.411 L 923.738 679 929.869 679 L 936 679 936 677.468 C 936 676.625, 935.348 674.375, 934.551 672.468 L 933.102 669 930.173 669 C 928.563 669, 926.718 669.635, 926.074 670.411 M 344.387 683.433 C 342.474 684.266, 341.103 685.697, 340.832 687.144 C 340.590 688.440, 340.658 690.625, 340.985 692 C 341.415 693.810, 342.351 694.590, 344.378 694.825 C 346.021 695.016, 347.966 694.436, 349.088 693.420 C 350.469 692.170, 351 690.345, 351 686.845 L 351 682 349.250 682.039 C 348.288 682.061, 346.099 682.688, 344.387 683.433" stroke="none" fill="#ffffff" fill-rule="evenodd"/><path d="M 569.118 481.358 L 567.913 482.809 568.207 522.655 L 568.500 562.500 570.386 565.614 C 571.423 567.327, 573.517 569.465, 575.040 570.364 C 576.563 571.264, 579.855 572, 582.357 572 C 584.859 572, 588.052 571.478, 589.453 570.839 C 591.286 570.004, 592 568.906, 592 566.921 C 592 565.405, 591.727 563.452, 591.393 562.582 C 590.967 561.472, 589.476 561, 586.393 561 C 583.977 561, 581.911 560.888, 581.801 560.750 C 581.692 560.612, 581.354 542.500, 581.051 520.500 L 580.500 480.500 575.411 480.203 C 571.889 479.998, 569.951 480.354, 569.118 481.358 M 428.416 487.358 C 428.129 488.105, 431.580 496.992, 436.084 507.108 C 440.588 517.224, 444.287 525.953, 444.303 526.506 C 444.320 527.060, 440.166 536.637, 435.072 547.788 C 429.978 558.940, 426.073 568.747, 426.393 569.582 L 426.976 571.101 432.641 570.800 L 438.306 570.500 445.384 554.250 C 449.278 545.313, 452.699 538, 452.988 538 C 453.276 538, 456.660 545.313, 460.506 554.250 L 467.500 570.500 473.262 570.800 L 479.024 571.101 479.634 569.512 C 479.987 568.593, 476.367 559.291, 471.038 547.422 L 461.832 526.921 462.816 524.210 C 463.358 522.720, 467.247 514.132, 471.460 505.126 C 475.672 496.120, 478.872 488.110, 478.571 487.326 L 478.024 485.899 472.339 486.200 L 466.654 486.500 460.326 500.918 C 456.845 508.848, 453.848 515.486, 453.664 515.669 C 453.480 515.853, 450.708 509.815, 447.503 502.252 C 444.298 494.688, 441.243 487.938, 440.715 487.250 C 440.156 486.522, 437.495 486, 434.346 486 C 430.712 486, 428.766 486.446, 428.416 487.358 M 517.500 508.842 C 515.850 509.850, 513.862 511.448, 513.083 512.392 L 511.665 514.109 510.381 511.054 L 509.097 508 505.298 508.015 C 503.209 508.024, 500.882 508.422, 500.126 508.901 L 498.752 509.771 498.935 551.604 C 499.060 580.364, 499.462 593.851, 500.220 594.765 C 500.941 595.634, 503.084 595.991, 506.411 595.797 L 511.500 595.500 511.778 581.233 L 512.055 566.965 515.760 569.483 L 519.464 572 524.500 572 L 529.536 572 533.166 569.533 C 535.162 568.177, 537.699 565.589, 538.802 563.783 C 539.906 561.978, 541.527 558.056, 542.405 555.068 C 543.405 551.662, 543.996 545.883, 543.988 539.568 C 543.982 534.031, 543.335 527.090, 542.551 524.144 C 541.766 521.197, 539.954 517.017, 538.522 514.854 C 537.091 512.692, 534.475 510.041, 532.710 508.965 C 530.779 507.787, 527.707 507.007, 525 507.007 C 522.393 507.007, 519.238 507.779, 517.500 508.842 M 622.312 508.945 C 619.859 510.059, 616.843 512.614, 615.036 515.110 C 613.337 517.454, 611.232 521.832, 610.358 524.839 C 609.421 528.064, 608.771 534.036, 608.774 539.403 C 608.776 544.406, 609.325 550.522, 609.994 552.994 C 610.662 555.466, 612.042 559.122, 613.060 561.119 C 614.079 563.115, 616.271 565.891, 617.931 567.288 C 619.591 568.685, 622.580 570.366, 624.574 571.024 C 626.567 571.682, 631.026 572.040, 634.482 571.820 L 640.767 571.420 644.801 568.750 C 647.664 566.856, 649.746 564.231, 651.971 559.710 L 655.108 553.338 655.693 544.306 C 656.053 538.749, 655.798 532.730, 655.030 528.661 C 654.311 524.851, 652.451 519.840, 650.641 516.838 C 648.465 513.229, 646.146 510.918, 643.093 509.315 L 638.685 507 632.593 507.022 C 628.782 507.036, 624.931 507.756, 622.312 508.945 M 698.500 508.834 C 696.850 509.868, 694.613 511.711, 693.529 512.929 L 691.559 515.145 690.446 511.822 L 689.334 508.500 685.684 508.191 C 683.677 508.021, 681.276 508.306, 680.350 508.824 L 678.666 509.767 678.910 539.124 C 679.070 558.393, 679.527 568.930, 680.238 569.787 C 680.939 570.631, 683.123 570.988, 686.411 570.797 L 691.500 570.500 692 547.160 L 692.500 523.820 694.861 521.910 C 696.159 520.859, 697.959 519.954, 698.861 519.899 C 699.762 519.843, 701.930 519.875, 703.677 519.969 C 705.995 520.094, 707.160 519.570, 707.983 518.032 C 708.603 516.872, 708.974 514.028, 708.806 511.712 L 708.500 507.500 705 507.228 C 702.891 507.063, 700.308 507.702, 698.500 508.834 M 739.030 508.113 C 737.671 508.655, 735.029 510.266, 733.159 511.692 C 731.287 513.120, 728.677 516.648, 727.353 519.541 C 726.030 522.430, 724.592 527.746, 724.158 531.353 C 723.723 534.960, 723.491 539.619, 723.640 541.706 C 723.790 543.793, 724.178 547.750, 724.502 550.500 C 724.827 553.250, 726.309 557.733, 727.796 560.463 C 729.328 563.273, 732.316 566.697, 734.689 568.359 L 738.877 571.292 746.309 571.769 C 751.632 572.111, 755.157 571.776, 758.727 570.591 C 761.469 569.680, 764.721 567.861, 765.954 566.549 L 768.195 564.164 767.503 561.014 C 767.123 559.282, 766.263 557.654, 765.593 557.397 C 764.923 557.140, 762.378 557.836, 759.937 558.943 C 757.215 560.178, 753.334 560.965, 749.896 560.978 L 744.292 561 741.727 558.623 C 740.316 557.315, 738.678 554.503, 738.086 552.373 C 737.495 550.243, 737.009 547.487, 737.006 546.250 L 737 544 751.750 543.985 C 759.862 543.976, 767.175 543.541, 768 543.017 L 769.500 542.065 769.283 534.900 C 769.163 530.960, 768.363 525.322, 767.506 522.372 C 766.648 519.422, 764.503 515.365, 762.739 513.355 C 760.975 511.346, 758.076 509.094, 756.298 508.351 C 754.519 507.608, 750.462 507.029, 747.282 507.063 C 744.102 507.098, 740.388 507.570, 739.030 508.113 M 514.960 521.043 L 512 524.212 512 540.533 L 512 556.855 514.635 558.927 C 516.248 560.197, 518.740 561, 521.062 561 L 524.855 561 526.853 558.459 C 527.952 557.062, 529.335 553.665, 529.926 550.910 C 530.517 548.155, 530.989 542.661, 530.976 538.701 C 530.963 534.740, 530.543 529.735, 530.043 527.577 C 529.542 525.420, 528.271 522.495, 527.217 521.077 C 525.880 519.279, 524.186 518.405, 521.610 518.187 L 517.920 517.874 514.960 521.043 M 626.235 520.250 C 625.073 521.487, 623.656 524.525, 623.085 527 C 622.515 529.475, 622.049 535.100, 622.049 539.500 C 622.049 543.900, 622.515 549.525, 623.085 552 C 623.656 554.475, 625.073 557.513, 626.235 558.750 C 627.621 560.226, 629.516 561, 631.740 561 C 633.605 561, 635.948 560.563, 636.945 560.029 C 637.943 559.495, 639.545 557.133, 640.505 554.779 L 642.251 550.500 642.236 539.500 L 642.221 528.500 640.490 524.221 C 639.538 521.867, 637.943 519.505, 636.945 518.971 C 635.948 518.437, 633.605 518, 631.740 518 C 629.516 518, 627.621 518.774, 626.235 520.250 M 741.150 520.340 C 739.941 521.627, 738.513 524.211, 737.976 526.083 C 737.439 527.955, 737 530.727, 737 532.243 L 737 535 747 535 L 757 535 756.994 532.250 C 756.991 530.737, 756.512 527.783, 755.929 525.685 C 755.347 523.587, 753.999 520.999, 752.935 519.935 C 751.696 518.696, 749.624 518, 747.174 518 C 744.456 518, 742.712 518.678, 741.150 520.340 M 464.511 649.398 L 462 651.909 462 657.455 L 462 663 460 663 L 458 663 458 666 L 458 669 459.975 669 L 461.949 669 462.225 684.750 L 462.500 700.500 466 700.500 L 469.500 700.500 469.775 684.814 L 470.050 669.128 472.775 668.814 L 475.500 668.500 475.500 666 L 475.500 663.500 472.698 663.179 L 469.896 662.857 470.198 658.179 L 470.500 653.500 473 653.481 L 475.500 653.462 475.500 650.481 L 475.500 647.500 471.261 647.193 L 467.023 646.886 464.511 649.398 M 806.451 648.267 C 806.184 648.964, 806.085 661.002, 806.232 675.017 L 806.500 700.500 810.250 700.810 L 814 701.121 814 687.060 L 814 673 816 671 C 817.100 669.900, 819.098 669, 820.441 669 C 821.784 669, 823.246 669.563, 823.691 670.250 C 824.136 670.938, 824.725 678.025, 825 686 L 825.500 700.500 829 700.500 L 832.500 700.500 832.776 685.251 L 833.052 670.001 831.520 667.039 C 830.475 665.018, 828.741 663.703, 826.064 662.901 L 822.140 661.725 818.070 663.847 L 814 665.968 814 656.484 L 814 647 810.469 647 C 808.526 647, 806.718 647.570, 806.451 648.267 M 259.450 652.271 C 259.181 652.970, 259.083 664.107, 259.231 677.021 L 259.500 700.500 270.130 700.783 L 280.761 701.065 281.349 699.533 C 281.673 698.690, 281.678 697.325, 281.362 696.500 L 280.786 695 273.893 695 L 267 695 267 673 L 267 651 263.469 651 C 261.526 651, 259.718 651.572, 259.450 652.271 M 641.134 657.698 C 640.044 661.439, 637.093 672.176, 634.576 681.558 C 632.059 690.940, 630 699.180, 630 699.869 C 630 700.704, 631.248 701.017, 633.750 700.810 L 637.500 700.500 638.833 696 C 639.566 693.525, 640.340 690.938, 640.552 690.250 C 640.811 689.410, 643.175 689, 647.763 689 L 654.589 689 656.045 694.750 L 657.500 700.500 661.250 700.810 L 665 701.121 664.983 699.310 C 664.974 698.315, 662.159 687.150, 658.728 674.500 L 652.489 651.500 647.802 651.198 L 643.116 650.895 641.134 657.698 M 644.905 672.075 L 642.310 683 647.674 683 L 653.038 683 652.471 680.750 C 652.159 679.513, 650.913 674.596, 649.702 669.825 L 647.500 661.151 644.905 672.075 M 300 663.752 C 297.722 664.889, 295.714 667.058, 294.250 669.962 L 292 674.424 292.022 681.962 C 292.037 687.186, 292.625 690.781, 293.938 693.672 C 294.980 695.967, 297.076 698.659, 298.597 699.655 C 300.440 700.863, 303.241 701.467, 307 701.467 C 310.694 701.467, 313.563 700.861, 315.319 699.710 C 317.086 698.553, 318 697.070, 318 695.360 L 318 692.767 315.250 693.444 C 313.738 693.816, 311.268 694.369, 309.763 694.672 C 308.257 694.975, 305.972 694.959, 304.684 694.636 C 303.396 694.312, 301.816 692.891, 301.171 691.477 C 300.527 690.063, 300 688.044, 300 686.990 L 300 685.075 309.250 684.788 L 318.500 684.500 318.802 679.261 C 319.010 675.648, 318.480 672.613, 317.093 669.478 L 315.083 664.932 311.573 663.466 C 309.643 662.660, 307.037 662.001, 305.782 662.002 C 304.527 662.002, 301.925 662.790, 300 663.752 M 339.608 663.329 C 337.467 663.975, 335.258 665.229, 334.699 666.116 C 334.139 667.003, 333.984 668.515, 334.353 669.478 C 334.840 670.747, 335.638 671.041, 337.262 670.550 C 338.493 670.177, 341.409 669.618, 343.742 669.307 C 346.444 668.947, 348.531 669.196, 349.492 669.993 C 350.321 670.682, 351 672.481, 351 673.992 L 351 676.740 346.686 677.226 C 344.314 677.494, 341.092 678.340, 339.526 679.106 C 337.961 679.873, 335.757 681.747, 334.629 683.271 C 333.188 685.219, 332.622 687.397, 332.727 690.602 C 332.809 693.109, 333.577 696.231, 334.434 697.539 C 335.291 698.847, 337.762 700.448, 339.926 701.096 L 343.860 702.275 347.961 700.137 L 352.063 697.999 352.638 699.500 C 352.955 700.325, 354.178 700.993, 355.357 700.985 C 356.536 700.976, 357.983 700.639, 358.573 700.235 C 359.302 699.736, 359.462 694.484, 359.073 683.851 L 358.500 668.203 356.600 666.107 C 355.555 664.954, 353.080 663.561, 351.100 663.011 C 349.120 662.461, 346.600 662.043, 345.500 662.082 C 344.400 662.122, 341.749 662.682, 339.608 663.329 M 385.750 663.744 C 384.238 664.690, 383 665.809, 383 666.232 C 383 666.654, 382.602 667, 382.117 667 C 381.631 667, 380.989 666.067, 380.691 664.926 L 380.149 662.853 377.324 663.176 L 374.500 663.500 374.500 682 L 374.500 700.500 378 700.500 L 381.500 700.500 381.778 686.755 L 382.056 673.009 384.376 671.489 C 385.652 670.654, 387.776 670.089, 389.098 670.235 L 391.500 670.500 391.500 666.514 C 391.500 663.748, 391.041 662.451, 390 662.277 C 389.175 662.139, 387.262 662.799, 385.750 663.744 M 414.523 663.565 C 412.885 664.419, 411.198 665.653, 410.773 666.309 C 410.254 667.108, 409.792 666.742, 409.369 665.196 L 408.739 662.893 405.619 663.196 L 402.500 663.500 402.500 682 L 402.500 700.500 406.250 700.810 L 410 701.121 410 687.060 L 410 673 412 671 C 413.100 669.900, 415.098 669, 416.441 669 C 417.784 669, 419.246 669.563, 419.691 670.250 C 420.136 670.938, 420.725 678.025, 421 686 L 421.500 700.500 425 700.500 L 428.500 700.500 428.778 685.525 C 428.963 675.549, 428.655 669.582, 427.856 667.652 C 427.144 665.934, 425.314 664.193, 423.360 663.377 C 421.547 662.620, 419.487 662.003, 418.782 662.006 C 418.077 662.010, 416.160 662.711, 414.523 663.565 M 500.750 663.744 C 499.238 664.690, 498 665.809, 498 666.232 C 498 666.654, 497.602 667, 497.117 667 C 496.631 667, 495.989 666.067, 495.691 664.926 L 495.149 662.853 492.324 663.176 L 489.500 663.500 489.500 682 L 489.500 700.500 493 700.500 L 496.500 700.500 496.778 686.755 L 497.056 673.009 499.376 671.489 C 500.652 670.654, 502.776 670.089, 504.098 670.235 L 506.500 670.500 506.500 666.514 C 506.500 663.748, 506.041 662.451, 505 662.277 C 504.175 662.139, 502.262 662.799, 500.750 663.744 M 524 663.703 C 521.754 664.856, 519.694 667.099, 518.250 669.962 L 516 674.424 516 682 L 516 689.576 518.250 694.038 C 519.691 696.896, 521.758 699.148, 524 700.302 C 526.283 701.478, 528.817 701.944, 531.288 701.642 C 533.372 701.388, 536.222 700.429, 537.622 699.512 C 539.022 698.595, 541.020 695.967, 542.062 693.672 C 543.382 690.765, 543.956 687.225, 543.956 682 C 543.956 676.775, 543.382 673.235, 542.062 670.328 C 541.020 668.033, 539.117 665.469, 537.834 664.628 C 536.550 663.788, 533.700 662.832, 531.500 662.504 C 528.668 662.081, 526.478 662.431, 524 663.703 M 569.754 663.955 C 567.693 665.080, 565.781 666, 565.504 666 C 565.227 666, 565 665.296, 565 664.437 L 565 662.873 561.750 663.187 L 558.500 663.500 558.500 682 L 558.500 700.500 562.250 700.810 L 566 701.121 566 686.715 L 566 672.310 567.829 670.655 C 568.835 669.745, 570.579 669, 571.706 669 C 572.833 669, 574.247 669.593, 574.849 670.318 C 575.498 671.100, 576.056 677.509, 576.221 686.068 L 576.500 700.500 580 700.500 L 583.500 700.500 583.780 686.546 L 584.059 672.592 585.685 670.796 C 586.579 669.808, 588.349 669, 589.620 669 C 590.890 669, 592.395 669.870, 592.965 670.934 C 593.538 672.006, 594 679.169, 594 686.995 L 594 701.121 597.750 700.810 L 601.500 700.500 601.805 686.500 C 601.987 678.169, 601.658 670.950, 600.992 668.672 L 599.873 664.845 596.469 663.422 C 594.596 662.640, 592.438 662, 591.672 662 C 590.906 662, 588.693 663.076, 586.754 664.392 L 583.229 666.784 581.361 664.917 C 580.334 663.889, 578.145 662.792, 576.497 662.479 C 574.489 662.098, 572.264 662.585, 569.754 663.955 M 689.523 663.565 C 687.885 664.419, 686.198 665.653, 685.773 666.309 C 685.254 667.108, 684.792 666.742, 684.369 665.196 L 683.739 662.893 680.619 663.196 L 677.500 663.500 677.500 682 L 677.500 700.500 681.250 700.810 L 685 701.121 685 687.060 L 685 673 687 671 C 688.100 669.900, 690.098 669, 691.441 669 C 692.784 669, 694.246 669.563, 694.691 670.250 C 695.136 670.938, 695.725 678.025, 696 686 L 696.500 700.500 700 700.500 L 703.500 700.500 703.778 685.525 C 703.963 675.549, 703.655 669.582, 702.856 667.652 C 702.144 665.934, 700.314 664.193, 698.360 663.377 C 696.547 662.620, 694.487 662.003, 693.782 662.006 C 693.077 662.010, 691.160 662.711, 689.523 663.565 M 855 663.752 C 852.722 664.889, 850.714 667.058, 849.250 669.962 L 847 674.424 847.022 681.962 C 847.037 687.186, 847.625 690.781, 848.938 693.672 C 849.980 695.967, 852.076 698.659, 853.597 699.655 C 855.440 700.863, 858.241 701.467, 862 701.467 C 865.694 701.467, 868.563 700.861, 870.319 699.710 C 872.086 698.553, 873 697.070, 873 695.360 L 873 692.767 870.250 693.444 C 868.737 693.816, 866.268 694.369, 864.763 694.672 C 863.257 694.975, 860.972 694.959, 859.684 694.636 C 858.396 694.312, 856.816 692.891, 856.171 691.477 C 855.527 690.063, 855 688.044, 855 686.990 L 855 685.075 864.250 684.788 L 873.500 684.500 873.802 679.261 C 874.010 675.648, 873.480 672.613, 872.093 669.478 L 870.083 664.932 866.573 663.466 C 864.643 662.660, 862.037 662.001, 860.782 662.002 C 859.527 662.002, 856.925 662.790, 855 663.752 M 900.750 663.744 C 899.237 664.690, 898 665.809, 898 666.232 C 898 666.654, 897.602 667, 897.117 667 C 896.631 667, 895.989 666.067, 895.691 664.926 L 895.149 662.853 892.324 663.176 L 889.500 663.500 889.500 682 L 889.500 700.500 893 700.500 L 896.500 700.500 896.778 686.755 L 897.056 673.009 899.376 671.489 C 900.652 670.654, 902.776 670.089, 904.098 670.235 L 906.500 670.500 906.500 666.514 C 906.500 663.748, 906.041 662.451, 905 662.277 C 904.175 662.139, 902.263 662.799, 900.750 663.744 M 924 663.752 C 921.722 664.889, 919.714 667.058, 918.250 669.962 L 916 674.424 916.022 681.962 C 916.037 687.186, 916.625 690.781, 917.938 693.672 C 918.980 695.967, 921.076 698.659, 922.597 699.655 C 924.440 700.863, 927.241 701.467, 931 701.467 C 934.694 701.467, 937.563 700.861, 939.319 699.710 C 941.086 698.553, 942 697.070, 942 695.360 L 942 692.767 939.250 693.444 C 937.737 693.816, 935.268 694.369, 933.763 694.672 C 932.257 694.975, 929.972 694.959, 928.684 694.636 C 927.396 694.312, 925.816 692.891, 925.171 691.477 C 924.527 690.063, 924 688.044, 924 686.990 L 924 685.075 933.250 684.788 L 942.500 684.500 942.802 679.261 C 943.010 675.648, 942.480 672.613, 941.093 669.478 L 939.083 664.932 935.573 663.466 C 933.643 662.660, 931.037 662.001, 929.782 662.002 C 928.527 662.002, 925.925 662.790, 924 663.752 M 716.552 663.916 C 716.241 664.419, 718.387 673.100, 721.322 683.206 L 726.658 701.580 724.420 708.214 C 723.189 711.863, 722.441 715.108, 722.758 715.425 C 723.074 715.741, 724.816 716, 726.628 716 L 729.923 716 730.904 712.250 C 731.444 710.188, 734.344 699.275, 737.350 688 C 740.355 676.725, 742.969 666.600, 743.157 665.500 L 743.500 663.500 739.784 663.192 L 736.067 662.883 735.517 665.192 C 735.214 666.461, 733.919 672.675, 732.638 679 L 730.311 690.500 729.240 686.500 C 728.651 684.300, 727.194 678.112, 726.002 672.750 L 723.836 663 720.477 663 C 718.630 663, 716.863 663.412, 716.552 663.916 M 753.033 664.690 C 753.051 665.685, 754.740 674.150, 756.786 683.500 L 760.507 700.500 764.669 700.803 L 768.831 701.107 769.358 699.303 C 769.648 698.312, 770.671 692.448, 771.633 686.273 C 772.594 680.099, 773.504 675.171, 773.656 675.323 C 773.808 675.474, 774.632 680.076, 775.488 685.549 C 776.344 691.022, 777.300 696.761, 777.613 698.303 L 778.182 701.106 782.338 700.803 L 786.493 700.500 790.214 683.500 C 792.260 674.150, 793.949 665.712, 793.967 664.750 L 794 663 790.500 663 C 788.575 663, 786.968 663.112, 786.929 663.250 C 786.890 663.388, 785.849 670.250, 784.616 678.500 L 782.374 693.500 779.937 678.500 L 777.500 663.500 774.105 663.176 C 772.238 662.998, 770.388 663.372, 769.994 664.009 C 769.601 664.646, 768.457 670.970, 767.453 678.063 C 766.449 685.157, 765.373 690.707, 765.063 690.398 C 764.754 690.088, 763.600 683.910, 762.500 676.668 L 760.500 663.500 756.750 663.190 L 753 662.879 753.033 664.690 M 302.074 670.411 C 301.430 671.187, 300.641 673.437, 300.321 675.411 L 299.738 679 305.869 679 L 312 679 312 677.468 C 312 676.625, 311.348 674.375, 310.551 672.468 L 309.102 669 306.173 669 C 304.563 669, 302.718 669.635, 302.074 670.411 M 525.872 670.653 C 525.035 671.662, 524.371 675.459, 524.168 680.403 C 523.985 684.856, 524.316 689.749, 524.903 691.276 C 525.490 692.802, 526.653 694.313, 527.487 694.633 C 528.322 694.954, 530.083 694.945, 531.402 694.614 C 532.920 694.233, 534.204 692.853, 534.900 690.857 C 535.505 689.121, 536 685.054, 536 681.819 C 536 678.583, 535.348 674.375, 534.551 672.468 L 533.102 669 530.173 669 C 528.563 669, 526.627 669.744, 525.872 670.653 M 857.074 670.411 C 856.430 671.187, 855.641 673.437, 855.321 675.411 L 854.738 679 860.869 679 L 867 679 867 677.468 C 867 676.625, 866.348 674.375, 865.551 672.468 L 864.102 669 861.173 669 C 859.563 669, 857.718 669.635, 857.074 670.411 M 926.074 670.411 C 925.430 671.187, 924.641 673.437, 924.321 675.411 L 923.738 679 929.869 679 L 936 679 936 677.468 C 936 676.625, 935.348 674.375, 934.551 672.468 L 933.102 669 930.173 669 C 928.563 669, 926.718 669.635, 926.074 670.411 M 344.387 683.433 C 342.474 684.266, 341.103 685.697, 340.832 687.144 C 340.590 688.440, 340.658 690.625, 340.985 692 C 341.415 693.810, 342.351 694.590, 344.378 694.825 C 346.021 695.016, 347.966 694.436, 349.088 693.420 C 350.469 692.170, 351 690.345, 351 686.845 L 351 682 349.250 682.039 C 348.288 682.061, 346.099 682.688, 344.387 683.433" stroke="none" fill="#eaebed" fill-rule="evenodd"/></svg>